<svg xmlns="http://www.w3.org/2000/svg" xmlns:xlink="http://www.w3.org/1999/xlink" width="100" height="100" viewBox="0 0 100 100">
  <defs>
    <clipPath id="clip-path">
      <rect id="KomodoDragon_Shot_v009" width="100" height="100" transform="translate(-1836 -16255)" fill="#070707" opacity="0.6"/>
    </clipPath>
    <linearGradient id="linear-gradient" x1="-0.001" y1="0.5" x2="1" y2="0.5" gradientUnits="objectBoundingBox">
      <stop offset="0" stop-color="#fbb040"/>
      <stop offset="1" stop-color="#ed1c24"/>
    </linearGradient>
    <linearGradient id="linear-gradient-2" x1="0" y1="0.5" x2="1" y2="0.5" xlink:href="#linear-gradient"/>
  </defs>
  <g id="Mask_Group_32" data-name="Mask Group 32" transform="translate(1836 16255)" clip-path="url(#clip-path)">
    <g id="Layer_2" data-name="Layer 2" transform="translate(-1836.008 -16248.78)">
      <g id="Layer_1" data-name="Layer 1">
        <path id="Path_12751" data-name="Path 12751" d="M40.188,21.868h0c-.078.016-.159.033-.255.059l-.517.123c-.38.094-.819.218-1.287.351-.49.163-1.009.323-1.454.461-.317.1-.645.184-.96.263-.172.043-.341.086-.508.131s-.308.073-.457.1l-.223.043-.413.082-.2.039a2.412,2.412,0,0,1-.392.055l-.131.012-.227.022-.18.016-.355.033a.043.043,0,0,0-.02,0,1.176,1.176,0,0,0-.12-.031.353.353,0,0,1-.114-.051h-.014a.219.219,0,0,1-.071-.049,1.409,1.409,0,0,0,.163-.247,4.985,4.985,0,0,0,.223-.461l.035-.082c.067-.151.147-.316.249-.51.014-.037.031-.073.047-.106a.759.759,0,0,0,.049-.11l.037-.069c.02-.037.039-.073.055-.1l.037-.051a.227.227,0,0,1,.065-.071l.024-.022a.518.518,0,0,1,.057-.045h.014l.027-.016c.055-.029.092-.053.1-.059l.274.057a1.114,1.114,0,0,1,.212.045,4.981,4.981,0,0,0,.537.1h-.055c-.027,0-.049.022-.047.039a.051.051,0,0,0,0,.041.063.063,0,0,0,.035.02h.121a.5.5,0,0,0,.2-.039.449.449,0,0,0,.061-.031h.073a.805.805,0,0,1-.159.233.31.31,0,0,1-.17.09h-.092a.051.051,0,0,0,0,.1h.1a.47.47,0,0,0,.249-.088,1.009,1.009,0,0,0,.276-.323c.2.024.413.047.637.055l.2.016c.37.024.753.051,1.137.059S37.9,22,38.3,22h.317a3.033,3.033,0,0,0,.406-.018c.178-.014.359-.029.553-.049S40,21.9,40.188,21.868Zm-5.16-.274L35,21.623h.012a.2.2,0,0,1,.014-.029Zm-.323,8.193v-.071l-.059.106A.423.423,0,0,1,34.705,29.787Zm6.363-1.948c-.041.331-.078.686-.116,1.041a.276.276,0,0,0,.039-.047v-.018l.037-.059a.061.061,0,0,1,0-.02l.284-.854.2-.9.069-.511L41.6,26.3c.016-.116.031-.235.041-.355.045-.715.09-1.432.125-1.971,0-.1.014-.2.02-.272C41.574,24.664,41.294,26.087,41.068,27.839Zm.245-16.6h0l.08-.09a.031.031,0,0,1,.018-.014h-.018a4.97,4.97,0,0,1-.472-.278h-.014a1.162,1.162,0,0,1-.014.278,1.8,1.8,0,0,1-.143.48c-.045.108-.1.218-.151.323.2-.167.382-.335.5-.455.092-.114.161-.186.21-.245Zm1.127,3.682-.047.016c-.1.035-.2.069-.282.1a.674.674,0,0,0-.078.029l-.065.025-.035.018a.257.257,0,0,0-.059.035l-.027.024a.145.145,0,0,0-.039.037h0a.339.339,0,0,0-.031.055.059.059,0,0,1,0,.02.406.406,0,0,1-.022.053h0s-.014.082-.041.212a1.6,1.6,0,0,0-.033.231v.067a2.167,2.167,0,0,0-.018.237,10.326,10.326,0,0,0,.088,1.648c.025.21.059.417.094.619l.041.257c.025.163.045.321.065.468.059-.468.118-.89.182-1.286l.092-.5c.059-.329.12-.664.182-1,.08-.533.153-1.062.2-1.432l-.037.012Zm-.709,4.507c-.051-.225-.112-.488-.155-.77s-.069-.588-.088-.9a9.163,9.163,0,0,1,0-1.681,1.188,1.188,0,0,1,.031-.216.754.754,0,0,1,.016-.1,1.65,1.65,0,0,1,.053-.241l.047-.172V15.34c0-.016-.02-.033-.037-.069a.225.225,0,0,0-.029-.039l-.02-.022a.137.137,0,0,0-.043-.037l-.039-.027a1.123,1.123,0,0,0-.265-.112c-.1-.041-.216-.078-.335-.118l-.059-.02c-.108-.035-.219-.073-.325-.116l.219.715c.12.48.225.907.319,1.305l.094.437c.067.292.133.588.18.88a10.8,10.8,0,0,1,.114,1.176c0,.145.012.288.012.451a1.87,1.87,0,0,1,.392-.061ZM40.4,14.541l.165.059a.629.629,0,0,1-.112-.135.47.47,0,0,1-.076-.225V14.16a.049.049,0,0,1,0-.035.045.045,0,0,1,.037-.018h0a.049.049,0,0,1,.049.039l.02.073a.341.341,0,0,0,.086.155,1.186,1.186,0,0,0,.513.261l-.049-.063a2.912,2.912,0,0,1-.392-.549,1.142,1.142,0,0,1-.078-.229V13.7a.043.043,0,0,1,0-.027.045.045,0,0,1,.031-.025.051.051,0,0,1,.063.033.6.6,0,0,0,.116.265,4.144,4.144,0,0,0,.453.488h0a2.577,2.577,0,0,1-.1-.359.931.931,0,0,1-.029-.233v-.014h0a.045.045,0,0,1,.01-.041.067.067,0,0,1,.037-.018.051.051,0,0,1,.051.037v.024a1.1,1.1,0,0,0,.071.208c.051.118.129.27.208.421v-1.1a.051.051,0,1,1,.1,0s.073.468.129.943a4.269,4.269,0,0,0,.157-.551.71.71,0,0,0,.024-.155c0-.022,0-.041,0-.057l.01-.082a.047.047,0,0,1,.049-.043.051.051,0,0,1,.051.049,2.334,2.334,0,0,1,.014.3,3.649,3.649,0,0,1-.09.645v.022l.018.069.086-.094a2.522,2.522,0,0,0,.392-.506.588.588,0,0,0,.067-.2l.01-.08a.051.051,0,0,1,.049-.045.048.048,0,0,1,.051.049v.082a.674.674,0,0,1-.041.239,2.007,2.007,0,0,1-.294.551,1.5,1.5,0,0,0,.174-.118l.1-.071a1.107,1.107,0,0,0,.125-.1l.073-.747.029-.866c0-.21.012-.351.014-.4h0v-.01a1.305,1.305,0,0,1-.055-.125.294.294,0,0,1-.014-.039l-.012-.031v-.016h0l-.016-.022c0-.014-.02-.027-.027-.041a.372.372,0,0,0-.074-.086.4.4,0,0,1-.051-.049,1.024,1.024,0,0,0-.1-.076l-.08-.057a1.244,1.244,0,0,1-.118-.067,1.131,1.131,0,0,0-.12-.069q-.3-.2-.558-.329h-.016a.076.076,0,0,1,0,.035s-.022.039-.055.106l-.018.033c-.033.063-.078.149-.141.245a3.612,3.612,0,0,1-.423.572,3.827,3.827,0,0,0,.417-.147.66.66,0,0,0,.135-.063l.076-.039a.268.268,0,0,1,.047-.033.408.408,0,0,0,.1-.08V11.8a.312.312,0,0,0,.074-.114.282.282,0,0,0,.035-.12v-.135a.061.061,0,0,1,.061-.057.063.063,0,0,1,.061.051l.022.127a.364.364,0,0,1,0,.17.533.533,0,0,1-.076.214.6.6,0,0,1-.116.149l-.047.053-.043.035a1.371,1.371,0,0,1-.186.135,4.194,4.194,0,0,1-.4.218l-.1.049c-.151.076-.314.169-.461.257-.039.018-.071.035-.1.051a.5.5,0,0,1-.1.051l-.065.043a.408.408,0,0,0-.074.051l-.025.024a.235.235,0,0,0-.065.071A.317.317,0,0,0,40,13.23l-.033.1.408,1.058Zm-8.909,7.615h-.037q.071.118.141.253c.127-.1.259-.212.392-.333a3.5,3.5,0,0,1-.5.08Zm.255.527c.059.112.118.214.174.306a2.058,2.058,0,0,0,.347-.619h0c-.208.131-.372.231-.523.314ZM34.59,21.57h.235a1.715,1.715,0,0,0,.2-.316l-.051.027a3.488,3.488,0,0,1-.57.274h.169Zm-2.634.118c-.374-.035-.753-.082-1.035-.118l.024.012a.643.643,0,0,1,.165.12l.067.057.047.057a1.662,1.662,0,0,1,.123.161.326.326,0,0,0,.106-.037c.163-.059.372-.149.588-.241Zm4.115-.09c.308,0,.656,0,1.007-.016l1.331-.055c.459,0,.835,0,1.176.022h.078l.392.024h.1v-.155l-.28.014H39.1c-.288-.016-.588-.051-.89-.084-.21-.018-.419-.049-.623-.08l-.261-.037a4.813,4.813,0,0,1-.541-.106l-.225-.053a2.04,2.04,0,0,1-.392-.118L36.03,20.9l-.137-.049-.033-.012a.7.7,0,0,0-.1.033.249.249,0,0,0-.059.031h-.012a.123.123,0,0,0-.039.035l-.035.033a1.231,1.231,0,0,0-.155.239c-.051.08-.1.167-.151.261l-.037.069-.018.031h.5ZM35.54,19.9l.018.127c.016.1.033.21.053.3a.457.457,0,0,0,.014.08.392.392,0,0,1,.012.069.045.045,0,0,0,.014.037.239.239,0,0,0,.024.067.253.253,0,0,1,.018.031.129.129,0,0,0,.031.043.29.29,0,0,0,.055.047h.014l.049.033h.014l.2.057a1.278,1.278,0,0,1,.151.041,1.914,1.914,0,0,0,.374.088,1.454,1.454,0,0,1,.249.039c.161.025.327.055.51.067l.229.024c.212.022.431.043.651.051.325.018.643.027.882.035l.772.055.278.025a.071.071,0,0,1,0-.02c-.235-.049-.492-.112-.766-.182-.176-.049-.392-.106-.607-.174-.137-.041-.276-.09-.423-.141l-.245-.084c-.466-.172-.95-.38-1.419-.588-.392-.155-.758-.325-1.123-.49l-.106-.049q.018.055.029.106a2.454,2.454,0,0,1,.051.306Zm-4.186,2.92.041.033a.155.155,0,0,0-.016-.045A.1.1,0,0,1,31.354,22.824Zm4.876,8.007-.143.043a1.3,1.3,0,0,1,.016.253v.043a.055.055,0,0,0,0,.018c.061-.074.123-.147.186-.219l.169-.2-.049.014Zm3.19-11.87c.155.159.3.308.439.461a8.571,8.571,0,0,1,.57.729c.041.057.076.11.112.161a1.734,1.734,0,0,1,.272-.265l-.022-.035-.1-.153c-.069-.106-.143-.223-.225-.349l-.059-.11c-.212-.333-.449-.727-.7-1.142l-.2-.345c-.182-.321-.372-.653-.574-.98a14.4,14.4,0,0,0-.86-1.258c-.086-.125-.18-.239-.27-.349l-.02-.024-.012.024a3.331,3.331,0,0,1-.208.351l-.027.045c-.073.114-.139.237-.2.335l-.012.024c-.02.027-.033.047-.045.067a.353.353,0,0,1-.055.078.256.256,0,0,1-.027.047.529.529,0,0,0-.029.053.036.036,0,0,1-.014.033.163.163,0,0,0-.02.057.026.026,0,0,1,0,.012.268.268,0,0,0,0,.071.1.1,0,0,1,0,.022v.074c.067.067,1.046,1.06,1.989,2.064Zm.948,4.47c-.229.349-.539.737-.813,1.072-.212.253-.459.508-.7.753-.118.123-.237.247-.355.372-.321.323-.682.676-1.1,1.078l-.682.588-.184.159a.821.821,0,0,1,0,.233.515.515,0,0,1-.137.288c-.049.049-.078.074-.078.074a.047.047,0,0,1-.071,0,.051.051,0,0,1,0-.067s.024-.031.069-.084a.392.392,0,0,0,.071-.227.608.608,0,0,0,0-.084l-1.029.739h0l-.031.123a.278.278,0,0,1-.01.031V28.5a.717.717,0,0,0-.014.121.272.272,0,0,0,.01.118v.067a1.019,1.019,0,0,0,.041.135.339.339,0,0,0,.027.082,1.155,1.155,0,0,1,.051.12c.018.041.033.084.057.129.035.1.08.2.125.3l.031.076c.139.024.28.053.413.08.206.043.415.078.588.1a1.188,1.188,0,0,0,.139.025.783.783,0,0,1,.116.02h.086a.415.415,0,0,0,.11,0h.039a.3.3,0,0,0,.114-.027.369.369,0,0,0,.127-.059c.047-.037.08-.059.1-.073a.025.025,0,0,1,0-.018l.7-1.09.623-1.16c.2-.415.419-.876.645-1.372.084-.206.169-.412.255-.615.112-.272.219-.531.319-.784l.1-.233c.061-.143.118-.276.18-.406l.12-.259c.049-.11.1-.212.143-.312l.2-.392L40.811,23c.016-.037.033-.069.047-.1a.317.317,0,0,0,.02-.035c-.035-.024-.072-.049-.106-.076C40.633,23.014,40.5,23.22,40.369,23.431Zm.739-3.639c-.012-.053-.025-.11-.039-.169-.022-.09-.045-.184-.065-.286-.08-.38-.151-.764-.212-1.142-.057-.423-.116-.872-.174-1.321s-.163-.947-.229-1.307-.147-.67-.21-.962h0a.1.1,0,0,1-.024-.02.47.47,0,0,1-.131-.241.319.319,0,0,0-.012-.092.08.08,0,0,1,0-.031.057.057,0,0,1,.035-.024.073.073,0,0,1,.024,0c-.129-.447-.216-.753-.237-.827h0a1.074,1.074,0,0,1-.086-.09l-.02-.022-.016-.016a.814.814,0,0,0-.069-.057h0a.269.269,0,0,0-.084-.047.462.462,0,0,1-.055-.024.741.741,0,0,0-.1-.031l-.082-.022a.713.713,0,0,1-.116-.024.9.9,0,0,0-.114-.022c-.157-.041-.355-.09-.555-.129l-.106-.02c-.159-.031-.325-.063-.482-.108a1.436,1.436,0,0,1-.517-.241l-.037-.035a.439.439,0,0,1-.123-.145l-.016-.024a.355.355,0,0,1-.063-.137h0c-.082.112-.159.21-.229.3-.129.159-.261.331-.366.484-.033.039-.059.076-.082.11a1.121,1.121,0,0,1-.073.1.754.754,0,0,1-.045.074.42.42,0,0,0-.051.1l-.018.043a.29.29,0,0,0-.027.11.392.392,0,0,0,0,.141.951.951,0,0,1,.018.118l.3.176a2.229,2.229,0,0,1,.347.241l.047.035a4.135,4.135,0,0,1,.376.314c.1.09.208.2.306.292a.043.043,0,0,0,0-.016.174.174,0,0,0-.02-.092l-.047-.1a.063.063,0,0,1,.029-.08h.025a.061.061,0,0,1,.043.018l.071.082a.466.466,0,0,1,.106.31.316.316,0,0,1,0,.073c.159.167.3.327.439.492.294.341.6.745.95,1.233.321.441.611.876.868,1.289.257.449.466.854.623,1.207.121.282.212.5.28.684l.074-.039h0A.4.4,0,0,1,41.107,19.792Zm-6.03,10.092a.546.546,0,0,1-.014.074v.024c-.022.131-.043.265-.067.392a.331.331,0,0,1,.053-.02,1.528,1.528,0,0,1,.167-.051l.047-.016c-.053-.139-.116-.278-.172-.392C35.089,29.881,35.078,29.885,35.078,29.885Zm2.43-14.717a.8.8,0,0,0,.063-.086l.012-.016a2.9,2.9,0,0,0-.2-.216v.043a2.275,2.275,0,0,1-.035.445,1.9,1.9,0,0,0,.161-.17ZM36.183,26.183a.69.69,0,0,1,.022.086.9.9,0,0,0,.025.1c.033.131.078.274.121.413l.037.114c.029.09.059.184.084.276l.178-.178.521-.513c.366-.392.709-.772,1.021-1.123.147-.182.3-.364.449-.543.18-.219.351-.427.517-.633L39.314,24c.1-.123.2-.239.306-.349l.415-.468c.114-.12.218-.231.312-.333l.055-.057c.065-.073.12-.129.174-.2a1.662,1.662,0,0,1-.208-.274l-.439.27-.49.306-.294.184c-.319.2-.617.392-.89.588a10.323,10.323,0,0,0-.829.655l-.357.333-.147.159-.147.159c-.084.1-.161.2-.229.286a1.536,1.536,0,0,0-.12.172c-.014.022-.025.043-.039.061l-.01.016-.112.178h0V25.7a.6.6,0,0,1-.043.08.033.033,0,0,1,0,.014.325.325,0,0,0-.025.069l-.012.035a.176.176,0,0,0-.01.073.268.268,0,0,1,0,.057.941.941,0,0,0,.016.131Zm3.945-5.767c-.229-.214-.445-.435-.643-.66-.129-.153-.253-.312-.392-.478-.09-.118-.182-.233-.274-.351-.57-.7-1.131-1.417-1.466-1.846a1.141,1.141,0,0,1-.127.5l-.027.071a2.854,2.854,0,0,0-.108.288.876.876,0,0,0-.069.218.245.245,0,0,0,.02.133v.012l.018.041c.024.018.884.613,1.723,1.211l.631.447c.2.151.38.306.525.429s.253.227.329.3c.018-.043.035-.086.057-.129-.049-.057-.12-.12-.192-.19ZM74.705,16.98a.69.69,0,0,1-.21-.043.635.635,0,0,1-.186-.092l-.071-.041-.045-.037a1.388,1.388,0,0,1-.2-.18,4.155,4.155,0,0,1-.337-.392l-.076-.1c-.127-.165-.267-.329-.392-.462-.031-.043-.061-.074-.088-.106s-.053-.059-.078-.092l-.061-.059a.4.4,0,0,0-.084-.074l-.031-.022a.323.323,0,0,0-.106-.055.415.415,0,0,0-.129-.035h-.127s-.5.329-.637.429l-.088.063a4.228,4.228,0,0,1-.353.245l-.143.09c-.127.08-.257.165-.392.241l-.059.031c-.18.1-.368.2-.566.3-.431.219-.9.437-1.4.649s-.98.413-1.427.576c-.492.161-.925.286-1.289.366-.392.088-.662.141-.864.172-.131.051-.255.1-.368.151-.212.088-.333.145-.335.145a.059.059,0,0,0-.033.055.061.061,0,0,0,.061.061h0s.137-.012.363-.047.549-.1.941-.182a10.639,10.639,0,0,0,1.3-.37c.441-.159.923-.355,1.434-.578s.968-.429,1.4-.651c.2-.094.382-.2.56-.3l.069-.039c.147-.078.282-.165.41-.249l.135-.084a4.19,4.19,0,0,0,.364-.251l.082-.059a2.385,2.385,0,0,0,.237-.2,24.429,24.429,0,0,1-28.83,32.375q-.163-.49-.321-.98c-.212-.676-.392-1.372-.588-2.089-.1-.392-.2-.8-.294-1.2-.165-.721-.31-1.456-.441-2.195q-.11-.617-.2-1.233c-.059-.4-.114-.817-.165-1.227-.088-.743-.163-1.481-.216-2.21-.024-.337-.045-.672-.063-1.007-.039-.784-.061-1.568-.061-2.32,0-.888.027-1.732.073-2.548.016,0,.035,0,.041-.025s.127-.588.233-1.158v-.016l.041-.2h0l.022.08c.055.208.106.392.133.553a1.193,1.193,0,0,1,.027.257v.037a.05.05,0,0,0,.1,0h0v-.018a1.276,1.276,0,0,0,.018-.278,3.467,3.467,0,0,0-.047-.5.267.267,0,0,1,0-.039c.02.031.039.063.061.094a4.425,4.425,0,0,1,.392.686.872.872,0,0,1,.067.235c0,.067,0,.1,0,.108a.055.055,0,0,0,.051.045.053.053,0,0,0,.051-.047s0-.037,0-.1a1.111,1.111,0,0,0-.037-.284,3.833,3.833,0,0,0-.316-.721L41.6,29.8l-.059-.12.063.039a1.409,1.409,0,0,1,.543.445.343.343,0,0,1,.045.112.223.223,0,0,1,.016.092v.1a.053.053,0,0,0,.049.045.049.049,0,0,0,.051-.045l.01-.09a.541.541,0,0,0-.039-.276.694.694,0,0,0-.165-.261,1.358,1.358,0,0,1,.429.282.4.4,0,0,1,.106.218v.108a.053.053,0,0,0,.051.045.049.049,0,0,0,.049-.047v-.108a.521.521,0,0,0-.1-.306,1.064,1.064,0,0,0-.316-.294,3.866,3.866,0,0,0-.339-.2l-.094-.051c-.123-.071-.251-.143-.364-.218a.69.69,0,0,1-.09-.055.6.6,0,0,0-.071-.045l-.016-.01a.741.741,0,0,1-.106-.09.392.392,0,0,0-.037-.043.145.145,0,0,1-.043-.063l-.012-.022a.214.214,0,0,1-.025-.061v-.031c-.01-.041-.02-.071-.024-.082h0l.071-.176.251-.639.237-.905.02-.11c.024-.133.049-.268.073-.408.01-.059.02-.118.031-.176.02-.116.041-.237.057-.359s.027-.241.043-.361c.029-.233.061-.474.073-.7a8.21,8.21,0,0,0,0-.933,5.79,5.79,0,0,0-.057-.784,1.764,1.764,0,0,0,.225-.022v.033c.014.069.029.143.045.227s.049.2.073.312.049.227.078.349.076.292.114.449c.025.1.049.2.074.3.037.184.069.37.1.549.012.073.024.141.035.208v.063c.024.221.045.427.063.6v.662a.018.018,0,0,0,0,.01L42.7,27v.01a.239.239,0,0,1-.08.11.678.678,0,0,1-.172.1l-.025.012c-.074.039-.161.078-.251.12l-.09.041a1.041,1.041,0,0,0-.474.317.349.349,0,0,0-.063.229l.01.069a.05.05,0,0,0,.1,0v-.076a.21.21,0,0,1,.065-.131,1.058,1.058,0,0,1,.435-.2,2.352,2.352,0,0,0-.253.31l-.133.208a.053.053,0,0,0,0,.061l.01.01a.045.045,0,0,0,.031.012.086.086,0,0,0,.029-.01h0l.174-.178a3.426,3.426,0,0,1,.274-.239,1.5,1.5,0,0,0-.182.435.664.664,0,0,0-.014.214.676.676,0,0,0,.012.073.041.041,0,0,0,.01.025.061.061,0,0,0,.039.018.047.047,0,0,0,.039-.018.067.067,0,0,0,0-.027h0v-.074a.56.56,0,0,1,.045-.167,2.455,2.455,0,0,1,.308-.466l.037-.047v.014a3.073,3.073,0,0,0-.024.588,2.634,2.634,0,0,0,.041.268.053.053,0,0,0,.049.035.045.045,0,0,0,.037-.018.041.041,0,0,0,.012-.033,2.5,2.5,0,0,1,.012-.253,3.951,3.951,0,0,1,.082-.431,7.24,7.24,0,0,0,.2.753.016.016,0,0,0,0,.01.051.051,0,0,0,.094-.025s-.025-.439-.067-.866v-.029c.073.11.139.214.184.3a.811.811,0,0,1,.078.169.151.151,0,0,0,.014.031.055.055,0,0,0,.051.027h.01a.051.051,0,0,0,.029-.063h0a1.031,1.031,0,0,0-.043-.208,1.958,1.958,0,0,0-.094-.255l.018.014a2.94,2.94,0,0,1,.376.337.224.224,0,0,0,.029.031.167.167,0,0,1,.033.045l.037.078.035.071a.059.059,0,0,0,.061.024.067.067,0,0,0,.029-.027.072.072,0,0,0,0-.035.2.2,0,0,0-.02-.071v-.014l-.018-.069a.264.264,0,0,0-.037-.074l-.02-.035a1.883,1.883,0,0,0-.31-.392l-.078-.082a.948.948,0,0,1,.415.165.376.376,0,0,1,.108.172.061.061,0,0,0,0,.024A.051.051,0,0,0,44,27.884a.252.252,0,0,0-.014-.069.392.392,0,0,0-.086-.2.417.417,0,0,0-.078-.09.721.721,0,0,1,.245.076.282.282,0,0,1,.116.116c.018.047.029.074.029.074a.061.061,0,0,0,.061.031.059.059,0,0,0,.035-.061l-.018-.076a.392.392,0,0,0-.133-.206,1.329,1.329,0,0,0-.57-.221l-.094-.022c-.1-.025-.2-.049-.284-.076a1.2,1.2,0,0,1-.241-.071.321.321,0,0,1-.114-.09l-.01-.012-.045-.055c0-.069.027-.31.055-.639,0-.2-.012-.433-.022-.688a2.191,2.191,0,0,0-.025-.221c-.022-.182-.043-.368-.071-.558l-.047-.278c-.027-.165-.055-.337-.094-.494-.057-.221-.125-.443-.2-.658-.027-.076-.057-.153-.088-.233a1.759,1.759,0,0,0-.2-3.431c.051-.163.1-.335.145-.51.12-.419.216-.921.288-1.315.051-.319.086-.651.121-1,.018-.174.037-.349.057-.525.047-.513.088-1.037.125-1.53v-.092a.623.623,0,0,0,.172-.137.392.392,0,0,0,.1-.247c0-.049,0-.08,0-.08a.043.043,0,0,0-.012-.037.094.094,0,0,0-.037-.018.051.051,0,0,0-.051.041L43,14.372a.243.243,0,0,1-.09.151.182.182,0,0,1-.059.029v-.4l.014-.02a.051.051,0,0,0,0-.067h0l.014-.543-.057-1.3c.014-.02.037-.051.069-.1a.363.363,0,0,1,.1-.1.276.276,0,0,1,.1-.065l.033-.016a.468.468,0,0,1,.106-.037.543.543,0,0,0,.08-.024.654.654,0,0,0,.122-.02.784.784,0,0,1,.131-.024c.182-.041.392-.078.6-.106l.125-.018a5.017,5.017,0,0,0,.513-.088,1.715,1.715,0,0,0,.263-.082l.043-.016.067-.039a.627.627,0,0,0,.178-.118.588.588,0,0,0,.161-.2.41.41,0,0,0,.067-.18l.025-.153a.059.059,0,0,0-.041-.059h-.02a.059.059,0,0,0-.057.039s-.02.049-.053.145a.3.3,0,0,1-.078.121.411.411,0,0,1-.137.112.466.466,0,0,1-.137.055l-.063.022-.1.018a.915.915,0,0,1-.17.025,3.449,3.449,0,0,1-.372.014h-.233a5.164,5.164,0,0,0,.751-.51c.112-.092.2-.172.272-.243l.1-.094a.061.061,0,0,0,.01-.074.059.059,0,0,0-.082-.022s-.045.025-.116.073a3.377,3.377,0,0,1-.31.176,7.856,7.856,0,0,1-.76.333c.129-.125.261-.257.378-.392a2.195,2.195,0,0,0,.329-.461,1.315,1.315,0,0,0,.137-.392c.012-.092.018-.147.018-.147a.059.059,0,0,0-.039-.061h-.024a.063.063,0,0,0-.057.041l-.045.143a.357.357,0,0,1-.043.094l-.024.041a.849.849,0,0,1-.082.125L44.529,10a4.531,4.531,0,0,1-.845.725c-.059.045-.12.088-.18.131h0l.049-.133c.022-.061.045-.121.069-.182.049-.127.1-.261.143-.392.01-.033.022-.065.031-.1a1.521,1.521,0,0,0,.055-.176l.01-.049c.016-.071.029-.139.045-.2a1.4,1.4,0,0,0,.041-.278.347.347,0,0,1,.01-.1l.012-.137a.059.059,0,0,0-.045-.067H43.9a.053.053,0,0,0-.057.043s-.016.047-.041.133c-.012.027-.02.061-.031.1a1.25,1.25,0,0,1-.088.251,8.5,8.5,0,0,1-.466.915c.045-.837.057-1.677.057-1.685a.065.065,0,0,0-.039-.059h-.02a.061.061,0,0,0-.061.047s-.2.847-.339,1.677c-.014.067-.025.133-.039.2-.092-.29-.184-.588-.237-.8a1.707,1.707,0,0,1-.063-.378.255.255,0,0,0,0-.043.059.059,0,0,0-.061-.055.061.061,0,0,0-.061.061v.029a1.916,1.916,0,0,0-.027.392,4.338,4.338,0,0,0,.059.674l-.033-.043a7.176,7.176,0,0,1-.625-.964c-.012-.027-.024-.057-.035-.082a.723.723,0,0,1-.043-.108l-.018-.067a.392.392,0,0,1-.02-.086L41.6,9.048a.061.061,0,0,0-.061-.053.059.059,0,0,0-.061.053,1.135,1.135,0,0,1-.014.147.461.461,0,0,0,0,.116v.071a.657.657,0,0,0,.024.133l.02.1a5.042,5.042,0,0,0,.462,1.046l.031.059.041.082h0L42,10.78a4.055,4.055,0,0,1-.461-.261,1.15,1.15,0,0,1-.325-.319.482.482,0,0,1-.076-.161.3.3,0,0,1-.029-.135c-.01-.086-.014-.135-.014-.135a.061.061,0,0,0-.061-.055.059.059,0,0,0-.059.053l-.016.135a.463.463,0,0,0,0,.172.588.588,0,0,0,.055.221.9.9,0,0,0,.125.243.863.863,0,0,0,.061.08c-.043-.018-.088-.035-.129-.057a1.186,1.186,0,0,1-.165-.088l-.082-.049L40.79,10.4a.784.784,0,0,1-.153-.123.44.44,0,0,0-.041-.047.376.376,0,0,1-.076-.118l-.018-.035a.231.231,0,0,1-.033-.11c-.012-.1-.018-.153-.018-.153a.06.06,0,0,0-.12,0v.151a.359.359,0,0,0,.02.17v.031a.5.5,0,0,0,.084.2l.027.049a1.348,1.348,0,0,0,.3.3v.055a.255.255,0,0,1,0,.08.088.088,0,0,1-.01.047.587.587,0,0,1-.039.129l-.012.031a4.025,4.025,0,0,1-.527.825l-.067.092V11.76c0-.125.01-.245,0-.363a2.993,2.993,0,0,0-.031-.48,1.135,1.135,0,0,0-.045-.237.465.465,0,0,0-.022-.09c-.018-.074-.027-.12-.029-.121a.061.061,0,0,0-.12.018v.219a1.1,1.1,0,0,1,0,.223,7.566,7.566,0,0,1-.129.784c-.2-.668-.392-1.3-.4-1.307a.063.063,0,0,0-.063-.043h0a.082.082,0,0,0-.039.02.059.059,0,0,0-.014.045s.061.758.157,1.491l.012.078c-.153-.2-.28-.382-.368-.513a1.432,1.432,0,0,1-.157-.29.2.2,0,0,0-.022-.041.059.059,0,0,0-.053-.033h-.018a.059.059,0,0,0-.039.074.14.14,0,0,1,0,.024,1.619,1.619,0,0,0,.082.343,3.553,3.553,0,0,0,.184.468,6.365,6.365,0,0,1-.754-.588,1.289,1.289,0,0,1-.2-.247l-.051-.116a.055.055,0,0,0-.071-.037.061.061,0,0,0-.045.071l.027.127a1.384,1.384,0,0,0,.153.337,4.327,4.327,0,0,0,.655.743l.051.051h0a1.675,1.675,0,0,1-.766-.255.419.419,0,0,1-.1-.108.257.257,0,0,1-.063-.1l-.049-.11a.059.059,0,0,0-.057-.035h-.012a.063.063,0,0,0-.039.027.061.061,0,0,0,0,.045l.022.114a.368.368,0,0,0,.047.147.513.513,0,0,0,.106.174.784.784,0,0,0,.2.182.249.249,0,0,1-.055,0,1.372,1.372,0,0,1-.443-.112l-.045-.027a.276.276,0,0,1-.094-.071l-.024-.025a.184.184,0,0,1-.061-.08c-.02-.043-.035-.073-.045-.092l.02-.025a.392.392,0,0,0,.045-.059,1.371,1.371,0,0,0,.131-.225l.027-.053a.318.318,0,0,1,.025-.08.629.629,0,0,0,.047-.2.553.553,0,0,0-.018-.255.392.392,0,0,0-.073-.176c-.051-.078-.082-.125-.084-.125a.061.061,0,0,0-.047-.025h-.024a.057.057,0,0,0-.033.033.051.051,0,0,0,0,.047l.059.141a.3.3,0,0,1,.025.143.4.4,0,0,1-.024.174.415.415,0,0,1-.063.135l-.033.061a.8.8,0,0,0-.057.078.958.958,0,0,1-.112.133,3.968,3.968,0,0,1-.353.349l-.076.073a5.072,5.072,0,0,0,.2-.884c.02-.131.027-.245.033-.329v-.035a1.029,1.029,0,0,0,0-.129.059.059,0,0,0-.043-.069h-.016a.063.063,0,0,0-.057.045l-.037.133c-.024.086-.055.2-.1.337a8.577,8.577,0,0,1-.351.841v-.018c0-.174.014-.353.01-.523A2.289,2.289,0,0,0,36.216,11a1.3,1.3,0,0,0-.165-.376c-.055-.074-.084-.118-.09-.121a.061.061,0,0,0-.1.016.055.055,0,0,0,0,.049s.024.049.063.137a.276.276,0,0,1,.031.1.068.068,0,0,0,.014.047.762.762,0,0,1,.024.153v.039a4.613,4.613,0,0,1-.121,1.107l-.035.178a.391.391,0,0,0-.01.051c-.02-.043-.037-.086-.057-.131l-.055-.137c-.057-.143-.116-.29-.18-.427-.016-.031-.029-.063-.043-.094a1.416,1.416,0,0,0-.08-.165l-.123-.212h0a1.462,1.462,0,0,0-.159-.231.949.949,0,0,1-.061-.078l-.086-.112a.061.061,0,0,0-.047-.025.053.053,0,0,0-.025,0,.065.065,0,0,0-.031.084s.025.045.063.121a.942.942,0,0,0,.049.1,1.286,1.286,0,0,1,.1.237,9.143,9.143,0,0,1,.28.98c-.51-.651-1.078-1.27-1.078-1.274a.061.061,0,0,0-.047-.024.041.041,0,0,0-.027,0,.053.053,0,0,0-.029.035.061.061,0,0,0,0,.049s.439.749.9,1.458l.11.172c-.288-.161-.539-.3-.721-.423a1.7,1.7,0,0,1-.3-.233.123.123,0,0,0-.041-.033.057.057,0,0,0-.076,0,.061.061,0,0,0,0,.086h0l.018.025a1.865,1.865,0,0,0,.251.312,4.5,4.5,0,0,0,.5.453h-.053a6.8,6.8,0,0,1-1.115-.28l-.069-.029a.641.641,0,0,1-.116-.055.423.423,0,0,0-.061-.037.362.362,0,0,1-.073-.051l-.11-.1a.067.067,0,0,0-.074,0,.065.065,0,0,0-.016.088s.035.041.09.116a.6.6,0,0,0,.078.08l.053.049a1.2,1.2,0,0,0,.123.094l.069.045a5.007,5.007,0,0,0,1.066.457l.049.016.09.035h-.01l-.063.016a4.411,4.411,0,0,1-.484.11c-.076,0-.163.016-.243.016a.721.721,0,0,1-.218-.029.457.457,0,0,1-.163-.065.347.347,0,0,1-.114-.078l-.1-.09a.059.059,0,0,0-.076,0,.063.063,0,0,0-.014.086l.082.106a.421.421,0,0,0,.118.125.67.67,0,0,0,.2.127.813.813,0,0,0,.237.078h.025l.108.02-.143.045a1.176,1.176,0,0,1-.176.047l-.1.022h-.059a1.388,1.388,0,0,1-.186.012h-.063a.343.343,0,0,1-.133-.029l-.039-.016a.231.231,0,0,1-.1-.057l-.121-.1a.057.057,0,0,0-.078,0,.061.061,0,0,0,0,.084s.035.045.1.118a.413.413,0,0,0,.129.112l.025.016a.566.566,0,0,0,.2.086l.059.018a1.646,1.646,0,0,0,.627,0c.182-.029.366-.076.545-.121l.123-.031c.249-.065.48-.112.633-.141.047-.014.094-.022.137-.031s.092-.018.129-.029l.092-.014a1.191,1.191,0,0,1,.174-.014h.049a.223.223,0,0,1,.088.012h.01a.417.417,0,0,1,.108.031h.018l.031.016a.968.968,0,0,0,.121.055h.024l.28.2a2.2,2.2,0,0,1,.3.284l.059.053a3.331,3.331,0,0,1,.333.306h0l-.053.2a1.294,1.294,0,0,1-.055.169c-.018.049-.037.1-.053.153v.029a.392.392,0,0,0-.014-.125,1.421,1.421,0,0,0-.1-.392.815.815,0,0,0-.153-.255l-.065-.071a.065.065,0,0,0-.047-.024h-.027a.059.059,0,0,0-.029.035.065.065,0,0,0,0,.047l.045.088a.721.721,0,0,1,.061.225,3.386,3.386,0,0,1-.045.721h0c-.049-.09-.1-.182-.153-.268a2.477,2.477,0,0,0-.233-.3.927.927,0,0,0-.131-.147.576.576,0,0,1-.049-.049l-.071-.071a.065.065,0,0,0-.041-.018h-.025a.059.059,0,0,0-.033.035.071.071,0,0,0,0,.049l.047.084a.451.451,0,0,0,.035.067.9.9,0,0,1,.078.163c.045.11.1.255.155.443-.361-.335-.694-.619-.7-.621a.053.053,0,0,0-.074,0,.063.063,0,0,0-.018.082s.3.462.623.915c-.116-.049-.233-.1-.321-.139a1.086,1.086,0,0,1-.227-.131.133.133,0,0,0-.035-.02.061.061,0,0,0-.071.01.057.057,0,0,0-.02.045.055.055,0,0,0,.024.043h0a1.176,1.176,0,0,0,.2.218,1.693,1.693,0,0,0,.2.178,4.621,4.621,0,0,1-.621-.082,1.025,1.025,0,0,1-.223-.086l-.08-.055a.055.055,0,0,0-.076,0,.061.061,0,0,0,0,.086l.069.082a1.1,1.1,0,0,0,.237.178,3.063,3.063,0,0,0,.674.255,1.333,1.333,0,0,1-.429.1h-.057a.345.345,0,0,1-.1-.022H35.23a.208.208,0,0,1-.08-.041l-.078-.055a.065.065,0,0,0-.069,0,.057.057,0,0,0-.025.037.061.061,0,0,0,.014.049l.057.073a.572.572,0,0,0,.235.174.5.5,0,0,0,.1.037.919.919,0,0,1-.29.08h-.061a.161.161,0,0,1-.059-.01h-.029a.114.114,0,0,1-.065-.027l-.092-.059a.065.065,0,0,0-.073,0,.059.059,0,0,0-.02.045.055.055,0,0,0,.014.039l.071.078a.323.323,0,0,0,.1.078h.02a.366.366,0,0,0,.141.055l.045.012a1.076,1.076,0,0,0,.451-.025,3.785,3.785,0,0,0,.368-.1L36,16.9c.108-.035.219-.063.317-.088l.112-.029.071-.024c.094-.033.174-.063.237-.078l.057-.012a.253.253,0,0,1,.049,0h.127c.049.012.086.016.094.018l.061.078h0a.051.051,0,0,0,0,.067l.047.059a.2.2,0,0,1,.045.141,1.041,1.041,0,0,1-.18.437,2.288,2.288,0,0,0-.031-.392l-.049-.251a.053.053,0,0,0-.051-.035.049.049,0,0,0-.065.067V17.1a3,3,0,0,1-.033.364,1.544,1.544,0,0,0-.17-.441.635.635,0,0,0-.139-.165l-.059-.045a.045.045,0,0,0-.031-.012.065.065,0,0,0-.031.014.049.049,0,0,0-.02.041.08.08,0,0,0,.014.029l.049.055a.572.572,0,0,1,.082.149,2.3,2.3,0,0,1,.1.551V17.7h0l-.012-.014a3.36,3.36,0,0,0-.374-.443A2.629,2.629,0,0,0,36,17.08a.082.082,0,0,0-.025,0,.059.059,0,0,0-.039.02.053.053,0,0,0,0,.069,1.354,1.354,0,0,1,.169.2,3.837,3.837,0,0,1,.239.368c-.331-.219-.653-.412-.653-.412a.053.053,0,0,0-.031,0,.069.069,0,0,0-.031.012.059.059,0,0,0,0,.076s.325.3.649.576l.022.02c-.125-.029-.247-.059-.337-.084a.9.9,0,0,1-.172-.067.131.131,0,0,0-.031-.012.053.053,0,0,0-.065.027.049.049,0,0,0,.024.061h0a.866.866,0,0,0,.172.118,2,2,0,0,0,.243.121,2.964,2.964,0,0,1-.525.018.343.343,0,0,1-.1-.012l-.082-.029-.074-.027h-.016a.059.059,0,0,0-.041.025.049.049,0,0,0,.016.067l.065.039.02.012.053.031a.312.312,0,0,0,.08.031h.037a1.656,1.656,0,0,0,.482.067h.125a.939.939,0,0,1-.413.169h-.012a.392.392,0,0,1-.184-.051H35.54a.049.049,0,0,0-.051.016.045.045,0,0,0-.014.035.063.063,0,0,0,.02.037l.055.041a.427.427,0,0,0,.2.08.439.439,0,0,0,.118.01.8.8,0,0,1-.229.114.257.257,0,0,1-.165,0l-.073-.031h-.02a.063.063,0,0,0-.043.024.051.051,0,0,0,.016.069l.065.043a.392.392,0,0,0,.241.055,1.286,1.286,0,0,0,.564-.233l.051-.033c.092-.053.2-.114.288-.159a1.226,1.226,0,0,1,.223-.116.327.327,0,0,1,.147-.016h.084c.114.094.854.7,1.617,1.309l.6.486c.2.147.382.272.557.392.141.092.276.176.415.257a.332.332,0,0,1-.02.073l-.2-.094-.284-.125-.2-.09c-.351-.151-.768-.31-1.238-.488l-.729-.247-.7-.247c-.392-.129-.764-.276-1.131-.415l-.3-.116c-.3-.106-.562-.223-.823-.335-.139-.061-.27-.118-.392-.169a4.145,4.145,0,0,1-.494-.225l-.361-.2-.319-.169h-.014c-.016-.02-.041-.053-.078-.094a.4.4,0,0,1-.069-.123.251.251,0,0,1-.033-.112v-.041a.378.378,0,0,1,0-.108v-.088a.434.434,0,0,1,.012-.118.95.95,0,0,1,.014-.139,4.956,4.956,0,0,1,.057-.6l.018-.123a4.269,4.269,0,0,0,.053-.521,1.588,1.588,0,0,0,0-.274v-.045a.359.359,0,0,0-.018-.076.68.68,0,0,0-.067-.2.562.562,0,0,0-.147-.208.425.425,0,0,0-.155-.114L32.463,15h-.025a.061.061,0,0,0-.051.027.067.067,0,0,0,.016.084l.127.088a.347.347,0,0,1,.094.108.423.423,0,0,1,.071.163.525.525,0,0,1,.018.145.339.339,0,0,0,0,.069.966.966,0,0,0-.01.106.907.907,0,0,1-.025.167,3.873,3.873,0,0,1-.121.49l-.025.094a5.266,5.266,0,0,0-.314-.862c-.055-.129-.11-.233-.149-.308l-.012-.022c-.039-.074-.059-.118-.063-.123a.061.061,0,0,0-.053-.029h-.016a.059.059,0,0,0-.037.027.057.057,0,0,0,0,.047s.012.047.037.135a3.465,3.465,0,0,1,.086.339,8.523,8.523,0,0,1,.139.9l-.02-.035c-.082-.147-.167-.3-.255-.435a2.2,2.2,0,0,0-.357-.441,1.266,1.266,0,0,0-.339-.235l-.131-.057h-.025a.059.059,0,0,0-.049.025.055.055,0,0,0,0,.045.063.063,0,0,0,.025.041l.125.082a.486.486,0,0,1,.074.063l.037.037a.651.651,0,0,1,.1.114l.02.022a4.507,4.507,0,0,1,.474,1.007l.051.141.029.078-.08-.057-.155-.114a3.741,3.741,0,0,0-.378-.268l-.08-.057a1.527,1.527,0,0,0-.157-.1l-.1-.041-.143-.074a1.3,1.3,0,0,0-.249-.121.894.894,0,0,1-.1-.037l-.135-.053h-.018a.053.053,0,0,0-.049.027.061.061,0,0,0,.018.086s.043.025.116.074c.025.018.057.035.09.055a1.2,1.2,0,0,1,.214.151,8.819,8.819,0,0,1,.756.7c-.462-.157-1.023-.335-1.579-.5h-.043a.057.057,0,0,0-.053.031.059.059,0,0,0,0,.045.076.076,0,0,0,.031.039s.762.41,1.525.784l.182.09c-.272.012-.588.022-.837.014h-.018a1.848,1.848,0,0,1-.359-.039.333.333,0,0,0-.049,0h0a.061.061,0,0,0-.059.045.059.059,0,0,0,.043.073h0l.025.012a1.875,1.875,0,0,0,.382.135,4.354,4.354,0,0,0,.664.127l-.051.02a7.4,7.4,0,0,1-1.1.343.219.219,0,0,0-.086.012.708.708,0,0,1-.1,0h-.116a.214.214,0,0,1-.055,0l-.145-.027h-.01a.059.059,0,0,0-.057.039.061.061,0,0,0,.033.08l.139.055a.672.672,0,0,0,.1.025l.073.014a1.11,1.11,0,0,0,.141.016h.151a5.538,5.538,0,0,0,1.082-.167l.061-.014.094-.018h0l-.043.047a4.858,4.858,0,0,1-.357.347,1.176,1.176,0,0,1-.392.227.457.457,0,0,1-.172.029.282.282,0,0,1-.139,0l-.133-.022h-.012a.059.059,0,0,0-.057.078.053.053,0,0,0,.035.037l.125.051a.476.476,0,0,0,.167.043.768.768,0,0,0,.147.016.464.464,0,0,0,.08,0A.954.954,0,0,0,31,19.3a.923.923,0,0,0,.1-.041l-.1.112a1.215,1.215,0,0,1-.12.125c-.029.027-.057.055-.078.078l-.047.037a.9.9,0,0,1-.153.106l-.051.024a.355.355,0,0,1-.135.045h-.041a.231.231,0,0,1-.116,0l-.163-.025a.061.061,0,0,0-.057.041.053.053,0,0,0,0,.045.055.055,0,0,0,.035.033l.141.047a.392.392,0,0,0,.167.029h.035a.5.5,0,0,0,.2-.027l.065-.016a1.513,1.513,0,0,0,.533-.329,3.525,3.525,0,0,0,.392-.392l.092-.094c.157-.163.317-.317.468-.451.033-.037.067-.067.1-.1s.067-.063.092-.092l.073-.059a1.1,1.1,0,0,1,.106-.084.486.486,0,0,0,.061-.035.312.312,0,0,1,.1-.049h.014a.717.717,0,0,1,.1-.027h.059A1.08,1.08,0,0,0,33,18.184h0l.053.033.219.139.345.219a3.948,3.948,0,0,0,.466.267c.1.051.214.108.325.169.249.129.527.276.823.406a1.421,1.421,0,0,1,.076.574,2.869,2.869,0,0,0-.288-.425l-.2-.218a.047.047,0,0,0-.063,0,.061.061,0,0,0-.024.031.059.059,0,0,0,0,.037l.149.247a1.35,1.35,0,0,1,.073.141,1.222,1.222,0,0,0,.055.116,1.321,1.321,0,0,1,.084.2,1.938,1.938,0,0,0-.474-.392.727.727,0,0,0-.229-.082l-.088-.012a.053.053,0,0,0-.049.037.055.055,0,0,0,.033.063l.08.022a.666.666,0,0,1,.172.1,2.632,2.632,0,0,1,.425.482l.078.1-.071-.025h-.014a3.841,3.841,0,0,0-.623-.2,2.328,2.328,0,0,0-.3-.039.055.055,0,0,0-.051.043.051.051,0,0,0,.035.057l.078.022.061.016a.715.715,0,0,1,.141.049,4.686,4.686,0,0,1,.515.251c-.478-.025-.952-.037-.958-.037a.053.053,0,0,0-.049.043.047.047,0,0,0,.039.055s.492.1.98.184l.1.018c-.174.055-.329.1-.447.129a.994.994,0,0,1-.214.031.169.169,0,0,0-.041,0,.055.055,0,0,0-.033.049.049.049,0,0,0,.049.049h.024a.945.945,0,0,0,.169.014H34.5a2.638,2.638,0,0,0,.366-.037h0a3.845,3.845,0,0,1-.576.331.607.607,0,0,1-.265.069h-.012a.067.067,0,0,0-.029.012c-.078-.012-.159-.022-.219-.027l-.316-.035h0l-.094-.059a.259.259,0,0,1-.08-.074h-.01a.2.2,0,0,1-.053-.076l-.02-.033a.589.589,0,0,1-.033-.082.2.2,0,0,0-.025-.073.624.624,0,0,0-.027-.1.811.811,0,0,0-.027-.11c-.055-.167-.106-.347-.145-.506l-.02-.082a4.242,4.242,0,0,0-.129-.468,1.324,1.324,0,0,0-.1-.227l-.016-.033-.037-.053a.588.588,0,0,0-.123-.151.545.545,0,0,0-.2-.125.421.421,0,0,0-.155-.043H32.03a.067.067,0,0,0-.061.045.063.063,0,0,0,.043.073l.131.037a.2.2,0,0,1,.1.053.374.374,0,0,1,.1.11.413.413,0,0,1,.059.114.111.111,0,0,0,.02.051c.006.01.016.063.025.092a1.223,1.223,0,0,1,.031.139c.022.125.033.265.045.412v.029a3.811,3.811,0,0,0-.464-.543c-.09-.092-.17-.161-.235-.216l-.09-.076a.055.055,0,0,0-.076,0,.063.063,0,0,0-.014.084s.027.033.074.1.106.147.17.255c.088.141.212.351.331.588-.094-.076-.2-.151-.282-.218a1.918,1.918,0,0,0-.435-.249,1.2,1.2,0,0,0-.357-.084h-.131a.063.063,0,0,0-.055.047.061.061,0,0,0,.045.073l.129.029a.3.3,0,0,1,.073.029l.047.02a.752.752,0,0,1,.118.067l.025.018a4.033,4.033,0,0,1,.69.684c.024.027.047.053.073.078l.01.012H32.13l-.157-.041c-.12-.033-.243-.067-.363-.092a2.957,2.957,0,0,0-.472-.078,1.4,1.4,0,0,0-.241,0,.5.5,0,0,1-.094,0h-.121a.063.063,0,0,0-.061.051.061.061,0,0,0,.047.069l.118.025a.564.564,0,0,0,.1.022,1.066,1.066,0,0,1,.216.061,7.43,7.43,0,0,1,.733.3c-.7.035-1.362.1-1.372.1a.057.057,0,0,0-.053.049.059.059,0,0,0,.01.047.049.049,0,0,0,.031.022l-.094.018a.059.059,0,0,0-.049.059.061.061,0,0,0,.061.061h.155a.28.28,0,0,1,.141.033.376.376,0,0,1,.149.092.488.488,0,0,1,.1.108c.016.02.031.041.043.053l.053.1.029.051a.049.049,0,0,0,0,.025.065.065,0,0,0,.047.053V22.2a4.064,4.064,0,0,1,.182.459v.02h0l-.031.024a4.785,4.785,0,0,0-.662-.478c-.11-.067-.208-.118-.28-.155l-.041-.02c-.074-.039-.118-.059-.12-.059a.073.073,0,0,0-.029,0,.057.057,0,0,0-.061.065.059.059,0,0,0,.024.041l.106.086c.082.065.172.137.27.227.129.121.282.274.441.445l-.061.012a.059.059,0,0,0-.049.055c-.063-.029-.125-.055-.2-.08a2.259,2.259,0,0,0-.549-.153,1.372,1.372,0,0,0-.412,0l-.141.033a.06.06,0,0,0,.016.118h.147a.286.286,0,0,1,.1,0h.055a.764.764,0,0,1,.151.037l.037.014a4.38,4.38,0,0,1,.97.545l.165.11.029.022H30.1l-.253.033a1.372,1.372,0,0,0-.274.057.533.533,0,0,0-.1.025l-.137.035a.061.061,0,0,0,.02.12H29.6a1.064,1.064,0,0,1,.263,0,8.623,8.623,0,0,1,1.017.127c-.8.241-1.593.517-1.6.521a.057.057,0,0,0-.039.061.061.061,0,0,0,.067.055h0c.01,0,.862-.108,1.693-.251l.2-.031c-.233.18-.484.37-.67.5a1.873,1.873,0,0,1-.331.2.178.178,0,0,0-.053.027.059.059,0,0,0-.022.069.063.063,0,0,0,.076.037h.027a1.764,1.764,0,0,0,.392-.11,4.724,4.724,0,0,0,.615-.282l-.031.045a7.237,7.237,0,0,1-.666.878l-.065.059a.981.981,0,0,1-.09.078l-.049.035a.443.443,0,0,1-.08.051l-.137.063a.061.061,0,0,0,.027.116h.014l.143-.035a.6.6,0,0,0,.11-.043l.061-.027a.851.851,0,0,0,.129-.074l.076-.047a5.207,5.207,0,0,0,.845-.811l.027-.029.065-.069v.049a3.953,3.953,0,0,1-.092.506,1.146,1.146,0,0,1-.2.415.5.5,0,0,1-.123.125.314.314,0,0,1-.118.073l-.125.061a.063.063,0,0,0-.031.071.061.061,0,0,0,.059.043h.014l.129-.033a.443.443,0,0,0,.165-.061.729.729,0,0,0,.2-.125,1.015,1.015,0,0,0,.182-.2.818.818,0,0,0,.057-.086.665.665,0,0,1-.01.141,1.525,1.525,0,0,1-.025.176.763.763,0,0,1-.018.1.215.215,0,0,1-.02.063.864.864,0,0,1-.061.17l-.027.049a.333.333,0,0,1-.084.116l-.029.029a.247.247,0,0,1-.092.069l-.141.071a.061.061,0,0,0,.029.114h.018l.143-.043a.343.343,0,0,0,.145-.071l.035-.024a.572.572,0,0,0,.155-.145l.037-.045a1.568,1.568,0,0,0,.245-.576c.045-.176.073-.363.1-.543l.022-.133c.031-.21.073-.429.118-.639a.683.683,0,0,1,.025-.143.784.784,0,0,0,.024-.125.319.319,0,0,1,.022-.082.631.631,0,0,1,.041-.133l.027-.065a.3.3,0,0,1,.055-.1l.022-.027.053-.074h.014l.031-.025.1-.09h.735a3.474,3.474,0,0,0,.537-.025l.292-.035.339-.041.147-.018c.182-.022.37-.045.56-.086s.345-.069.523-.1c.323-.061.656-.123.98-.21l.76-.176c.172-.035.339-.082.5-.129.076-.022.153-.043.233-.063a12.933,12.933,0,0,0,1.264-.451c.282-.114.527-.223.733-.321a.133.133,0,0,0,.014.039c-.112.047-.274.116-.474.212-.233.121-.525.268-.823.459-.263.167-.549.372-.878.627a9.436,9.436,0,0,0-.823.705l-.345.357-.057.067-.229.276c-.08.112-.153.218-.216.306a1.352,1.352,0,0,0-.12.2l-.033.061-.116.212-.065.016h-.024a.355.355,0,0,1-.082.012.272.272,0,0,1-.078-.012h-.035a.292.292,0,0,1-.08-.033l-.045-.024c-.022-.016-.045-.029-.069-.043a.9.9,0,0,1-.082-.057c-.094-.061-.2-.137-.3-.212l-.12-.09a2.842,2.842,0,0,0-.286-.2.851.851,0,0,0-.155-.084l-.041-.02-.053-.016a.447.447,0,0,0-.139-.031h0a.457.457,0,0,0-.3.071l-.088.063a.049.049,0,0,0-.016.037.037.037,0,0,0,0,.02.051.051,0,0,0,.067.025l.1-.049A.208.208,0,0,1,34.378,25a.3.3,0,0,1,.12.01,1.587,1.587,0,0,1,.6.433l.012.012.047.043a3.861,3.861,0,0,0-.684-.141l-.343-.027a.047.047,0,0,0-.047.035.055.055,0,0,0,0,.039.053.053,0,0,0,.033.025l.335.076a1.19,1.19,0,0,1,.184.055c.045.016.092.031.143.045a2.047,2.047,0,0,1,.219.082l.121.051h-.237a1.96,1.96,0,0,0-.588.067.747.747,0,0,0-.259.12l-.082.059a.051.051,0,0,0-.014.063.049.049,0,0,0,.043.027h.025l.086-.049a.805.805,0,0,1,.231-.069,3.135,3.135,0,0,1,.768.033h.061l.176.022-.08.037-.082.037a4.691,4.691,0,0,0-.709.351.994.994,0,0,0-.155.112l-.055.045-.074.059a.049.049,0,0,0-.022.033.063.063,0,0,0,0,.033.051.051,0,0,0,.043.025.065.065,0,0,0,.027,0l.08-.049a.67.67,0,0,0,.071-.039.85.85,0,0,1,.153-.08,6.476,6.476,0,0,1,.721-.255h.024l-.045.041c-.439.392-.87.784-.874.8a.051.051,0,0,0,0,.065.049.049,0,0,0,.041.022.047.047,0,0,0,.027,0s.492-.339.962-.684l.086-.106.09-.063h0l-.01.02c-.106.2-.218.408-.308.549a1.258,1.258,0,0,1-.157.208.135.135,0,0,0-.025.033.043.043,0,0,0,0,.053.057.057,0,0,0,.041.022.045.045,0,0,0,.033-.014h.012a1.371,1.371,0,0,0,.2-.2,3.507,3.507,0,0,0,.317-.412l.012-.014a.737.737,0,0,1-.02.108,4.781,4.781,0,0,1-.172.784,1.15,1.15,0,0,1-.114.219l-.065.073a.053.053,0,0,0-.016.037.049.049,0,0,0,0,.027.047.047,0,0,0,.041.024.057.057,0,0,0,.035-.014l.078-.067a1.119,1.119,0,0,0,.167-.235,3.747,3.747,0,0,0,.274-.784l.039-.129a.238.238,0,0,0,.02.071,1.415,1.415,0,0,1,.094.7.459.459,0,0,1-.045.114.274.274,0,0,1-.051.076l-.065.074a.047.047,0,0,0,0,.014l-.653.549a.041.041,0,0,0,0,.012l-.116.039a.3.3,0,0,1-.131.02h0a.278.278,0,0,1-.116-.01h-.041a.449.449,0,0,1-.1-.033l-.08-.031q-.053-.029-.106-.053a1.051,1.051,0,0,1-.123-.063c-.157-.071-.345-.165-.543-.272l-.1-.057a4.848,4.848,0,0,0-.472-.239,1.74,1.74,0,0,0-.255-.092l-.049-.014-.076-.012a.727.727,0,0,0-.214-.012.606.606,0,0,0-.247.063.392.392,0,0,0-.161.106l-.11.1a.061.061,0,0,0,.076.094l.129-.084a.31.31,0,0,1,.137-.051.392.392,0,0,1,.174,0,.435.435,0,0,1,.139.033l.074.025.09.045a1.2,1.2,0,0,1,.145.08,4.856,4.856,0,0,1,.419.3l.073.057a4.8,4.8,0,0,0-.907-.041,3.558,3.558,0,0,0-.363.029l-.135.016a.059.059,0,0,0-.053.053.055.055,0,0,0,.012.045.061.061,0,0,0,.041.022l.137.014a3.44,3.44,0,0,1,.353.043,7.551,7.551,0,0,1,.89.2c-.178.025-.363.051-.535.086a2.208,2.208,0,0,0-.543.174,1.254,1.254,0,0,0-.341.229l-.1.106a.061.061,0,0,0,.082.088l.118-.084a.418.418,0,0,1,.084-.045l.051-.024a.75.75,0,0,1,.163-.055h.024A3.705,3.705,0,0,1,33.49,29h.464l-.118.08-.145.09c-.129.08-.253.157-.37.241a.862.862,0,0,1-.076.051,1.635,1.635,0,0,0-.157.118l-.2.165a1.532,1.532,0,0,0-.2.2.93.93,0,0,1-.071.076c-.059.065-.092.106-.092.106a.055.055,0,0,0,0,.074.063.063,0,0,0,.086.014l.112-.082a.672.672,0,0,0,.086-.063,1.176,1.176,0,0,1,.219-.145,8.76,8.76,0,0,1,.917-.451c-.535.641-1.046,1.305-1.048,1.311a.057.057,0,0,0-.016.041.053.053,0,0,0,.016.037.061.061,0,0,0,.084,0s.658-.564,1.278-1.139l.149-.137c-.1.278-.2.574-.288.784a1.718,1.718,0,0,1-.176.339.237.237,0,0,0-.025.049.053.053,0,0,0,0,.031.051.051,0,0,0,.02.037.061.061,0,0,0,.084,0h0l.018-.02a1.73,1.73,0,0,0,.265-.306,2.681,2.681,0,0,0,.2-.3.549.549,0,0,0,.041-.049l.051-.061a.2.2,0,0,1,.069-.061c0,.214,0,.392-.016.543l-.055.024a.065.065,0,0,0-.039.071.063.063,0,0,0,.061.047h.022a3.97,3.97,0,0,1-.049.419.388.388,0,0,1-.016.069.887.887,0,0,1-.037.131.2.2,0,0,1-.024.063.519.519,0,0,1-.035.08L34.4,31.6a.061.061,0,0,0,.01.076.065.065,0,0,0,.086,0s.035-.041.1-.11a1.072,1.072,0,0,0,.063-.088c.012-.02.024-.041.039-.065a1,1,0,0,0,.067-.129c0-.025.024-.053.037-.082a2.743,2.743,0,0,0,.159-.553l.147-.022c.067,0,.145-.018.223-.025h.016a.89.89,0,0,1,.033.28,1.936,1.936,0,0,0-.316.233,1.3,1.3,0,0,0-.261.319l-.063.129a.055.055,0,0,0,.016.074.065.065,0,0,0,.086-.012l.088-.116a.425.425,0,0,1,.073-.074l.037-.029a.739.739,0,0,1,.131-.1l.027-.018.051-.029-.037.063a.061.061,0,0,0,.016.076.059.059,0,0,0,.082,0s.033-.037.092-.1a.5.5,0,0,0,.1-.141v-.02c.1-.041.212-.082.329-.12a.664.664,0,0,1,.043.174.556.556,0,0,1,0,.057.353.353,0,0,1,0,.145.253.253,0,0,0,0,.037.219.219,0,0,1-.037.108l-.08.141a.049.049,0,0,0,0,.033c-.031.047-.061.094-.086.135a1.415,1.415,0,0,0-.129.241.878.878,0,0,1-.045.1l-.059.127a.057.057,0,0,0,.018.074.063.063,0,0,0,.086-.012s.029-.043.08-.112a.894.894,0,0,0,.065-.086,1.205,1.205,0,0,1,.167-.2,8.7,8.7,0,0,1,.741-.7c-.323.766-.615,1.548-.619,1.558a.059.059,0,0,0,.025.071.063.063,0,0,0,.082-.02s.464-.729.886-1.458l.1-.17c0,.306-.022.607-.043.827a1.654,1.654,0,0,1-.071.376.275.275,0,0,0-.012.049.065.065,0,0,0,.039.065h.024a.063.063,0,0,0,.057-.039v-.01l.014-.025a2.021,2.021,0,0,0,.161-.364,4.577,4.577,0,0,0,.172-.647l.014.049a6.973,6.973,0,0,1,.265,1.113.618.618,0,0,0,0,.086.835.835,0,0,1,0,.12v.069a.392.392,0,0,1-.01.086l-.037.141a.059.059,0,0,0,.033.071.055.055,0,0,0,.025,0,.059.059,0,0,0,.053-.035l.065-.131a.729.729,0,0,0,.037-.116.231.231,0,0,1,.016-.061.933.933,0,0,0,.027-.151.248.248,0,0,1,.01-.082,5.1,5.1,0,0,0-.082-1.142V31.46a.881.881,0,0,1-.012-.094h0l.025.027a4.773,4.773,0,0,1,.335.392,1.176,1.176,0,0,1,.2.412.506.506,0,0,1,.018.176.339.339,0,0,1-.018.135l-.035.137a.059.059,0,0,0,.033.065H38.4a.057.057,0,0,0,.055-.033s.024-.045.059-.121a.415.415,0,0,0,.057-.163.57.57,0,0,0,.025-.227.894.894,0,0,0-.037-.268.619.619,0,0,0-.033-.1c.037.033.071.069.1.1a1.1,1.1,0,0,1,.121.133.979.979,0,0,0,.067.078l.031.045a.911.911,0,0,1,.1.161.184.184,0,0,0,.02.055.355.355,0,0,1,.035.139.292.292,0,0,0,0,.041.214.214,0,0,1,0,.112c-.022.1-.035.153-.035.155,0,.031.012.061.033.065h.027a.051.051,0,0,0,.053-.035l.065-.139a.445.445,0,0,0,.037-.176v-.022a.545.545,0,0,0-.014-.21c0-.02,0-.037,0-.059a1.6,1.6,0,0,0-.288-.555c-.108-.147-.233-.288-.355-.423l-.086-.1c-.127-.141-.267-.308-.413-.5a1.217,1.217,0,0,1-.1-.112,1.039,1.039,0,0,0-.08-.1l-.053-.074a1.149,1.149,0,0,1-.076-.11.437.437,0,0,0-.033-.069.261.261,0,0,1-.037-.1v-.022a.63.63,0,0,1-.02-.1v-.049a1.124,1.124,0,0,0,0-.133l.039-.053.729-.958.343-.543.374-.588c.225-.392.472-.852.733-1.346l.219-.437c.167-.325.323-.633.455-.945a12.85,12.85,0,0,0,.459-1.258c.065-.2.121-.41.172-.607a1.96,1.96,0,0,0,.263.1,45.775,45.775,0,0,0-.9,4.635q-.088.627-.165,1.309l-.172.024h-.031l-.106.01c-.112.012-.227.024-.335.045a1.066,1.066,0,0,0-.165.043l-.051.018-.047.022a.506.506,0,0,0-.121.074.445.445,0,0,0-.172.257c-.012.063-.022.1-.022.1h0a.053.053,0,0,0,.027.049h.022a.053.053,0,0,0,.049-.033l.035-.1a.233.233,0,0,1,.053-.082.263.263,0,0,1,.092-.076,1.272,1.272,0,0,1,.6-.1h.214a3.767,3.767,0,0,0-.588.363l-.27.218a.049.049,0,0,0,0,.061.051.051,0,0,0,.069.02s.118-.071.3-.172a1.066,1.066,0,0,1,.17-.088,1.411,1.411,0,0,0,.135-.065,2.1,2.1,0,0,1,.231-.094l.053-.02v.033a2.45,2.45,0,0,0-.511.564.919.919,0,0,0-.108.267.866.866,0,0,1-.018.1.051.051,0,0,0,.035.057.059.059,0,0,0,.065-.033.224.224,0,0,1,.029-.092.725.725,0,0,1,.121-.21,2.114,2.114,0,0,1,.357-.329c-.11,1.176-.2,2.43-.2,3.77-.016.766,0,1.558.027,2.365.014.339.029.68.051,1.021.043.751.11,1.513.2,2.273.045.413.1.829.149,1.244s.125.849.2,1.266c.125.756.263,1.513.423,2.256.092.413.2.819.284,1.221.172.717.366,1.46.588,2.165.118.392.235.768.357,1.142.221.694.447,1.346.692,1.983.137.355.274.7.412,1.041.241.588.482,1.176.729,1.7.357.76.727,1.519,1.119,2.269.233.447.459.843.662,1.19.106.182.2.351.3.51q.433.733.892,1.452a1.017,1.017,0,0,0,.549.455,1.215,1.215,0,0,0,.027.121.588.588,0,0,1-.123.482.318.318,0,0,1-.09.061c-.221.094-.551-.1-.784-.455-.306-.48-.6-.962-.894-1.45-.092-.161-.2-.329-.3-.51-.2-.349-.431-.745-.662-1.191q-.588-1.127-1.119-2.269c-.245-.537-.488-1.107-.729-1.7q-.206-.51-.412-1.043c-.245-.637-.47-1.287-.692-1.981-.121-.376-.239-.756-.357-1.142-.049-.163-.094-.329-.141-.494A24.447,24.447,0,1,1,71.874,15.55a2.741,2.741,0,0,0,.261-.265l.27-.2h0v-.012l.01-.014c.012-.016.031-.045.069-.092.01-.012.025-.027.035-.041a.264.264,0,0,0,.037-.061l.022-.047a.243.243,0,0,0,.037-.1.249.249,0,0,1,.02-.073.871.871,0,0,0,.014-.129.808.808,0,0,0,0-.1v-.131a1.1,1.1,0,0,0,0-.139c.01-.21.012-.433,0-.651V13.38a5.454,5.454,0,0,1,0-.566,1.55,1.55,0,0,1,.141-.611l.024-.045a.519.519,0,0,1,.131-.176l.025-.025a.431.431,0,0,1,.133-.1l.137-.067h.025a.059.059,0,0,1,.053.031.061.061,0,0,1-.012.074s-.053.037-.129.1a.223.223,0,0,0-.076.082.306.306,0,0,0-.025.037.31.31,0,0,0-.059.12l-.024.061a1.073,1.073,0,0,0-.031.2v.151a1.082,1.082,0,0,0,0,.176c0,.049.014.1.018.151.014-.035.02-.073.035-.1a.98.98,0,0,1,.147-.229.564.564,0,0,1,.165-.157.418.418,0,0,1,.149-.09l.125-.055h.024a.06.06,0,0,1,.033.11l-.11.08a.31.31,0,0,0-.1.092.519.519,0,0,0-.1.147,1.2,1.2,0,0,0-.114.443,4.952,4.952,0,0,0,0,.541v.029l.051-.078.029-.049a5.177,5.177,0,0,1,.682-.933l.061-.055a.95.95,0,0,1,.12-.1l.051-.037a.6.6,0,0,1,.1-.063l.137-.061h.024a.059.059,0,0,1,.031.11s-.041.031-.12.084a.549.549,0,0,0-.061.059.625.625,0,0,1-.051.051.962.962,0,0,0-.074.09.829.829,0,0,1-.053.071,7.055,7.055,0,0,0-.519,1.025l-.024.053a4.792,4.792,0,0,1,.557-.392,1.8,1.8,0,0,1,.363-.176h.024a.061.061,0,0,1,.084.031.053.053,0,0,1,0,.037.1.1,0,0,1-.016.029.274.274,0,0,1-.043.031,1.719,1.719,0,0,0-.263.218c-.135.131-.325.337-.564.6l.184-.061c.794-.286,1.613-.543,1.623-.547h.018a.061.061,0,0,1,.059.043.059.059,0,0,1-.031.071s-.735.413-1.478.794a9.444,9.444,0,0,0,1.019-.053,1.264,1.264,0,0,0,.253-.047.72.72,0,0,1,.11-.025l.135-.033a.063.063,0,0,1,.073.045.061.061,0,0,1-.033.069l-.129.061a1.069,1.069,0,0,0-.1.045,1.307,1.307,0,0,1-.251.1l-.245.076a1.227,1.227,0,0,1-.178.041l-.1.022c-.139.029-.284.053-.423.074l-.18.029-.141.025.047.02.167.074a4.538,4.538,0,0,0,1.052.366h.043a.866.866,0,0,0,.151,0,.819.819,0,0,0,.151,0l.147-.031a.057.057,0,0,1,.071.045.063.063,0,0,1-.033.069l-.135.057a1.266,1.266,0,0,1-.4.076h-.084a2.393,2.393,0,0,1-.482-.055c-.169-.033-.343-.08-.511-.125h0a8.033,8.033,0,0,0,.727.527c.118.074.221.131.3.172h.01l.121.067a.059.059,0,0,1,.022.082.057.057,0,0,1-.053.031h-.018l-.129-.039h-.018c-.082-.025-.2-.059-.329-.11a5.08,5.08,0,0,1-.823-.392h0l.065.114c.084.147.167.286.253.408a.979.979,0,0,0,.108.137.8.8,0,0,1,.065.074c.014,0,.031.027.049.043a.439.439,0,0,0,.118.092.451.451,0,0,0,.167.065.3.3,0,0,0,.143,0l.153-.027h.012a.065.065,0,0,1,.061.051.063.063,0,0,1-.039.067l-.137.053a.392.392,0,0,1-.2.031Zm-26.032-.7c-.316.327-.631.655-.929.968l-.125.129c-.3.319-.588.655-.882,1a2.818,2.818,0,0,0-.2.245,1.559,1.559,0,0,1-.137.167c-.116.135-.2.237-.261.319-.141.182-.219.288-.219.288a.061.061,0,0,0,.049.1.08.08,0,0,0,.033,0,12.1,12.1,0,0,0,1.025-.831c.257-.223.555-.511.96-.937.221-.239.431-.494.655-.766.112-.135.223-.272.339-.408.3-.374.617-.784.948-1.209.282-.392.545-.784.772-1.1l.666-1.113h0l.112-.047a.392.392,0,0,1,.137-.027.31.31,0,0,1,.12,0h.041a.366.366,0,0,1,.106.027.423.423,0,0,0,.078.024.841.841,0,0,0,.114.051.933.933,0,0,1,.127.053c.165.065.361.149.555.241l.112.055a4.9,4.9,0,0,0,.474.216,1.46,1.46,0,0,0,.245.074l.065.016h.084a.805.805,0,0,0,.208,0,.539.539,0,0,0,.241-.076.459.459,0,0,0,.159-.112l.1-.11a.067.067,0,0,0,0-.078.061.061,0,0,0-.086-.012l-.121.09a.3.3,0,0,1-.133.061.3.3,0,0,1-.118.018H53.92a.549.549,0,0,1-.137-.027l-.063-.018c-.031-.016-.065-.027-.1-.041a.9.9,0,0,1-.153-.073c-.133-.071-.268-.161-.412-.255l-.1-.067a4.78,4.78,0,0,0,.907-.014,3.171,3.171,0,0,0,.361-.051l.139-.024a.061.061,0,0,0-.012-.12h-.137a2.307,2.307,0,0,1-.355-.024,7.769,7.769,0,0,1-.9-.141c.176-.035.359-.073.527-.12a2.083,2.083,0,0,0,.531-.2,1.287,1.287,0,0,0,.335-.27l.088-.106a.059.059,0,0,0,.02-.043.057.057,0,0,0-.014-.037.053.053,0,0,0-.047-.024.078.078,0,0,0-.039.014s-.039.033-.116.092a.329.329,0,0,1-.084.053l-.045.024a.764.764,0,0,1-.143.061l-.037.012a4.546,4.546,0,0,1-1.105.141l-.121.01H52.6l.114-.086.139-.1c.12-.084.241-.172.355-.263l.082-.063c.049-.039.1-.074.141-.118l.184-.178a1.256,1.256,0,0,0,.182-.2,1.017,1.017,0,0,1,.069-.082l.086-.11a.057.057,0,0,0,0-.074.061.061,0,0,0-.084-.01l-.11.088-.08.067a1.146,1.146,0,0,1-.212.161,8.819,8.819,0,0,1-.892.5c.5-.67.98-1.372.98-1.372a.061.061,0,0,0-.088-.08s-.627.6-1.211,1.211c-.047.051-.094.1-.141.147.08-.284.167-.588.243-.8a1.871,1.871,0,0,1,.155-.349.149.149,0,0,0,.025-.051.069.069,0,0,0-.025-.069.061.061,0,0,0-.08.016h0l-.02.022a2.024,2.024,0,0,0-.245.319,4.468,4.468,0,0,0-.323.588c0-.018,0-.037,0-.055a7.334,7.334,0,0,1,.012-1.15.5.5,0,0,1,.014-.078.588.588,0,0,1,.027-.121.189.189,0,0,1,.02-.059.435.435,0,0,1,.033-.09l.069-.125a.065.065,0,0,0-.014-.082.063.063,0,0,0-.084.012l-.094.112a.756.756,0,0,0-.065.106l-.029.053a.658.658,0,0,0-.059.137c-.01.025-.02.053-.033.082a5.1,5.1,0,0,0-.2,1.105l-.01.09a.308.308,0,0,1-.01.094h0l-.014-.025a5.129,5.129,0,0,1-.237-.478,1.2,1.2,0,0,1-.1-.449.49.49,0,0,1,.027-.176.282.282,0,0,1,.049-.125l.063-.12a.061.061,0,0,0-.1-.071l-.084.1a.462.462,0,0,0-.094.145.643.643,0,0,0-.078.216.992.992,0,0,0-.027.257v.016a1,1,0,0,0,0,.11c-.029-.045-.057-.086-.078-.127a1.245,1.245,0,0,1-.086-.157,1.051,1.051,0,0,0-.047-.094.179.179,0,0,0-.022-.059.909.909,0,0,1-.053-.174v-.055a.363.363,0,0,1,0-.145v-.041a.267.267,0,0,1,.031-.11l.074-.145a.06.06,0,0,0-.1-.059s-.037.047-.09.121a.365.365,0,0,0-.076.145l-.016.039a.564.564,0,0,0-.035.2V10.3a1.542,1.542,0,0,0,.149.609,4.679,4.679,0,0,0,.239.488l.067.127c.1.2.2.392.284.588.025.045.045.086.065.129a1.176,1.176,0,0,0,.057.112c.012.033.025.065.037.094a.91.91,0,0,1,.043.12.354.354,0,0,0,.018.073.276.276,0,0,1,.014.11v.024a.552.552,0,0,1,0,.1.326.326,0,0,1-.012.051,1.253,1.253,0,0,0-.024.129h0c-.057.082-.333.468-.735,1.037L49.7,15.119C49.361,15.509,49.018,15.9,48.674,16.281Zm-4.96,2.6a2.129,2.129,0,0,1,.121-.2l.074-.121c.027-.045.057-.092.084-.141s.084-.147.135-.219.1-.157.147-.237l.092-.149a2.5,2.5,0,0,1,.176-.267c.029-.039.057-.08.084-.12.092-.125.184-.255.272-.378.063-.08.125-.155.2-.229l.1-.118.274-.327a1.808,1.808,0,0,1,.174-.2l.084-.084c.333-.339.557-.562.557-.562v-.012l.049-.025.02-.012a.345.345,0,0,1,.071-.025.118.118,0,0,1,.039,0h.063a.3.3,0,0,1,.065.012h.041l.069.025a.455.455,0,0,1,.08.029c.11.033.235.082.343.125l.063.025a3,3,0,0,0,.3.114.847.847,0,0,0,.366.037A.427.427,0,0,0,48.1,15.7c.033-.043.055-.067.055-.067a.018.018,0,0,0,0-.01.055.055,0,0,0,0-.057.049.049,0,0,0-.039-.018.055.055,0,0,0-.031.012l-.071.061a.278.278,0,0,1-.174.061h-.01a1.45,1.45,0,0,1-.576-.229l-.022-.012a3.188,3.188,0,0,0,.553-.039l.29-.059a.049.049,0,0,0,.043-.049.051.051,0,0,0-.049-.051h-.3a1.282,1.282,0,0,1-.17,0h-.127a1.805,1.805,0,0,1-.216-.024h-.025a2.156,2.156,0,0,0,.625-.227.825.825,0,0,0,.2-.165l.053-.069a.051.051,0,0,0,0-.063h0a.059.059,0,0,0-.031,0,.065.065,0,0,0-.035.016l-.063.059a.711.711,0,0,1-.176.106,2.6,2.6,0,0,1-.658.139l-.151.022.074-.063a3.959,3.959,0,0,0,.519-.462.8.8,0,0,0,.106-.133l.037-.051.049-.067a.051.051,0,0,0,0-.065.055.055,0,0,0-.037-.018.065.065,0,0,0-.037.016.644.644,0,0,0-.059.059.333.333,0,0,0-.047.045.682.682,0,0,1-.116.1,5.115,5.115,0,0,1-.513.349c.276-.421.541-.856.547-.866a.047.047,0,0,0-.012-.057.051.051,0,0,0-.035-.014.059.059,0,0,0-.037.016s-.345.392-.668.784c-.025.033-.053.065-.08.1.045-.2.084-.366.123-.494a.993.993,0,0,1,.078-.208.143.143,0,0,0,.018-.043.057.057,0,0,0-.024-.051.065.065,0,0,0-.025,0,.055.055,0,0,0-.041.02v.024a1.047,1.047,0,0,0-.131.2,2.875,2.875,0,0,0-.165.376V14.5a4.442,4.442,0,0,1-.033-.7.731.731,0,0,1,.08-.282h0a.049.049,0,0,0-.082-.053h0l-.053.078a.96.96,0,0,0-.094.235,3.353,3.353,0,0,0-.059.705v.088a.025.025,0,0,1,0-.01,1.248,1.248,0,0,1-.239-.557.433.433,0,0,1,.033-.182l.039-.078a.047.047,0,0,0-.02-.061.049.049,0,0,0-.027,0,.063.063,0,0,0-.041.02l-.047.069a.517.517,0,0,0-.086.231.506.506,0,0,0,0,.216,1.082,1.082,0,0,1-.184-.345.343.343,0,0,1,0-.2l.035-.082a.049.049,0,0,0-.01-.061h-.012a.053.053,0,0,0-.063.018l-.051.08a.461.461,0,0,0-.057.28,1.607,1.607,0,0,0,.308.674l.047.074c.063.1.127.208.18.308a1.225,1.225,0,0,1,.137.265.281.281,0,0,0,.014.055.124.124,0,0,1,0,.059v.039a.226.226,0,0,1,0,.039v.027l-.012.071h0l-.163.143-.412.364a.959.959,0,0,1-.08.073,2.065,2.065,0,0,0-.2.2l-.184.2-.11.116-.108.118a2.411,2.411,0,0,0-.2.225l-.3.372-.1.118a2.744,2.744,0,0,0-.2.261l-.071.106-.2.278a5.724,5.724,0,0,0-.341.637l-.061.131a4.61,4.61,0,0,0-.2.506,1.643,1.643,0,0,0-.057.212.053.053,0,0,0,.025.061h.024a.047.047,0,0,0,.043-.027A5.5,5.5,0,0,1,43.714,18.885Zm6.435,12.532a.067.067,0,0,0,0-.051l-.071-.131a.406.406,0,0,0-.106-.135l-.024-.022a.506.506,0,0,0-.174-.116l-.057-.029a1.568,1.568,0,0,0-.615-.12c-.2,0-.408,0-.609.02h-.076c-.184.012-.392.018-.6.018H47.4a1.125,1.125,0,0,1-.125,0l-.067-.014a.268.268,0,0,1-.112-.035h-.014a.484.484,0,0,1-.1-.049.333.333,0,0,0-.045-.033.748.748,0,0,0-.1-.073h0l-.363-1.213c-.074-.28-.2-.588-.312-.911-.041-.116-.086-.235-.131-.357-.033-.084-.065-.172-.1-.261-.053-.149-.108-.3-.174-.447l-.308-.715c-.163-.412-.355-.805-.539-1.19l-.1-.214c-.249-.451-.484-.837-.7-1.152h0a9.041,9.041,0,0,0-.568-.753,3.528,3.528,0,0,0-.243-.274.055.055,0,0,0-.043-.018.053.053,0,0,0-.024,0,.059.059,0,0,0-.033.035.047.047,0,0,0,0,.043l.151.325c.027.065.063.135.1.212l.078.161c.024.045.047.094.071.145.051.106.1.216.165.333l.28.56c.047.1.1.2.157.3s.114.21.167.321c.09.174.2.349.292.533.147.259.3.527.429.8l.345.692c.078.149.145.3.208.449.033.076.067.155.1.229q.106.251.212.482c.12.261.231.508.312.739.282.727.468,1.215.468,1.219h0v.12a.413.413,0,0,1-.033.139.247.247,0,0,1-.051.106l-.022.033a.425.425,0,0,1-.069.086l-.057.065a.918.918,0,0,0-.092.082c-.029.027-.061.057-.1.088-.137.133-.3.28-.451.408l-.08.067a4.764,4.764,0,0,0-.4.361,1.4,1.4,0,0,0-.176.2l-.031.041-.041.074a.617.617,0,0,0-.084.2.56.56,0,0,0-.033.253.433.433,0,0,0,.039.2l.057.135a.059.059,0,0,0,.055.037h.012a.051.051,0,0,0,.041-.027.049.049,0,0,0,0-.043l-.033-.151a.3.3,0,0,1,0-.145.549.549,0,0,1,.143-.284.558.558,0,0,0,.043-.055l.08-.071a1,1,0,0,1,.127-.108,4.735,4.735,0,0,1,.439-.288l.065-.041a5.062,5.062,0,0,0-.364.829c-.045.131-.076.245-.1.327v.022l-.033.129a.059.059,0,0,0,.031.073.061.061,0,0,0,.025,0,.063.063,0,0,0,.055-.031l.061-.125c.039-.078.092-.186.169-.31a8.194,8.194,0,0,1,.506-.774v.016c-.039.17-.082.345-.11.515a2.2,2.2,0,0,0-.035.566,1.346,1.346,0,0,0,.09.392c.039.082.061.131.065.137a.067.067,0,0,0,.053.029H46.5a.055.055,0,0,0,.037-.027.063.063,0,0,0,0-.045l-.037-.145a.372.372,0,0,1-.012-.09q0-.029,0-.059a.784.784,0,0,1,0-.163v-.033a4.589,4.589,0,0,1,.329-1.062c.022-.055.043-.11.067-.163,0-.02.016-.037.022-.057l.031.139c.012.059.024.118.033.174.027.143.055.288.09.427.01.033.016.067.024.1a1.328,1.328,0,0,0,.049.178l.082.243a1.4,1.4,0,0,0,.112.251,1.051,1.051,0,0,1,.047.094c.041.08.063.127.063.127a.063.063,0,0,0,.055.033h.014a.065.065,0,0,0,.039-.029.061.061,0,0,0,0-.045s-.016-.051-.037-.133a.919.919,0,0,0-.027-.1,1.108,1.108,0,0,1-.057-.257,8.49,8.49,0,0,1-.086-1.021c.4.733.837,1.452.843,1.46a.061.061,0,0,0,.051.027h.024a.057.057,0,0,0,.031-.076s-.284-.817-.588-1.6c-.027-.063-.051-.125-.074-.2.28.235.484.417.625.553a1.67,1.67,0,0,1,.253.288.273.273,0,0,0,.033.039.061.061,0,0,0,.074,0,.063.063,0,0,0,.022-.082V32.7a2.088,2.088,0,0,0-.2-.355,4.508,4.508,0,0,0-.406-.541l.051.02a7.3,7.3,0,0,1,1.043.486l.063.045a.805.805,0,0,1,.1.078l.047.043a.351.351,0,0,1,.067.065l.086.118a.063.063,0,0,0,.051.025h.025a.068.068,0,0,0,.031-.082l-.065-.133a.656.656,0,0,0-.067-.1l-.039-.053a.871.871,0,0,0-.1-.112l-.063-.063a4.917,4.917,0,0,0-.941-.641l-.065-.037c-.027-.016-.055-.031-.08-.049h.059a4.129,4.129,0,0,1,.506-.016,1.131,1.131,0,0,1,.445.1.539.539,0,0,1,.149.1.306.306,0,0,1,.1.1l.082.106a.057.057,0,0,0,.049.027h.027a.065.065,0,0,0,.029-.082l-.061-.12a.451.451,0,0,0-.092-.147.629.629,0,0,0-.163-.159.876.876,0,0,0-.237-.139.668.668,0,0,0-.094-.035,1.267,1.267,0,0,1,.139-.022,2.618,2.618,0,0,1,.282-.016h.067a1.1,1.1,0,0,1,.178.024l.053.018a.37.37,0,0,1,.131.059l.039.025a.278.278,0,0,1,.084.071l.1.127a.065.065,0,0,0,.045.02h.024a.059.059,0,0,0,.035-.033Zm.47-4.77a.086.086,0,0,0-.018-.035l-.082-.073a.519.519,0,0,0-.3-.108,1.207,1.207,0,0,0-.425.067c-.118.039-.237.09-.353.141l-.082.037c-.155.065-.292.121-.421.169-.033.016-.067.025-.1.037a.588.588,0,0,0-.082.027h-.024a.784.784,0,0,1-.135.027h-.051a.133.133,0,0,1-.069,0h-.041a.3.3,0,0,1-.061-.016l-.024-.012-.08-.031H48.26l-.609-.629c-.063-.065-.131-.129-.2-.2-.039-.033-.076-.069-.118-.106l-.1-.1c-.084-.076-.17-.157-.265-.229l-.3-.243c-.17-.135-.347-.274-.51-.429a4.078,4.078,0,0,1-.366-.376l-.025-.029a4.233,4.233,0,0,1-.3-.361c-.092-.114-.184-.219-.27-.323-.116-.133-.223-.261-.317-.392-.339-.412-.588-.68-.588-.686a.045.045,0,0,0-.053,0,.049.049,0,0,0-.029.035.055.055,0,0,0,0,.035h0s.182.321.478.77a8.738,8.738,0,0,0,.557.749,4.021,4.021,0,0,0,.359.392,4.094,4.094,0,0,0,.4.372c.172.151.355.284.533.412.11.078.214.155.316.235s.178.137.261.208l.114.092.129.108a1.942,1.942,0,0,1,.2.17l.662.609h0l.024.065.012.024a.392.392,0,0,1,.018.08.165.165,0,0,1,0,.074c0,.014,0,.025,0,.041a.257.257,0,0,1-.024.08.507.507,0,0,0-.02.049c-.014.024-.024.047-.037.071a.459.459,0,0,1-.049.09,3.37,3.37,0,0,1-.2.329l-.074.12a3.255,3.255,0,0,0-.172.3.817.817,0,0,0-.065.149.588.588,0,0,0-.022.057v.047a.513.513,0,0,0,.082.439.759.759,0,0,0,.063.074.047.047,0,0,0,.041.024.055.055,0,0,0,.025,0,.053.053,0,0,0,0-.078l-.057-.09a.233.233,0,0,1-.033-.094.276.276,0,0,1,0-.118,1.583,1.583,0,0,1,.378-.641h0c.014-.018.025-.035.039-.051a3.786,3.786,0,0,0-.076.694c0,.2,0,.341,0,.341a.018.018,0,0,0,0,.01.051.051,0,0,0,.049.039.049.049,0,0,0,.051-.043l.045-.341a1.066,1.066,0,0,1,.037-.2c.01-.045.022-.092.031-.143a1.505,1.505,0,0,1,.065-.239c.012-.039.024-.076.033-.114v.049a2.6,2.6,0,0,0,.135.784.868.868,0,0,0,.145.247l.063.069a.057.057,0,0,0,.041.022.082.082,0,0,0,.029,0,.053.053,0,0,0,.012-.073s-.022-.029-.055-.08a.772.772,0,0,1-.09-.221,2.893,2.893,0,0,1-.041-.77c0-.078,0-.161,0-.239.029.051.059.1.09.153a4.254,4.254,0,0,0,.417.674,1.025,1.025,0,0,0,.127.147l.049.049c.043.045.067.071.069.071a.043.043,0,0,0,.035.016.065.065,0,0,0,.027,0,.053.053,0,0,0,.022-.037.049.049,0,0,0,0-.033s-.02-.029-.057-.078c-.012-.02-.027-.039-.043-.061a.717.717,0,0,1-.1-.151,5.606,5.606,0,0,1-.323-.694v-.022l.045.041c.425.392.87.784.872.784a.049.049,0,0,0,.035.016.059.059,0,0,0,.035-.016.049.049,0,0,0,0-.069s-.392-.457-.772-.892l-.051-.059c-.031-.035-.063-.071-.092-.108h0c.227.094.445.2.588.263a1.4,1.4,0,0,1,.221.137l.033.024h.022a.063.063,0,0,0,.039-.02.057.057,0,0,0,0-.063.053.053,0,0,0-.016-.014l-.016-.016a1.491,1.491,0,0,0-.2-.178,4.137,4.137,0,0,0-.457-.288h.11a4.464,4.464,0,0,1,.784.1.937.937,0,0,1,.227.092l.084.061a.049.049,0,0,0,.029,0,.08.08,0,0,0,.033-.014v-.01a.045.045,0,0,0,0-.063s-.025-.027-.076-.074a1.08,1.08,0,0,0-.247-.145,3.843,3.843,0,0,0-.811-.2l-.133-.025.071-.027a1.742,1.742,0,0,1,.588-.165.731.731,0,0,1,.09,0,.282.282,0,0,1,.116.033.2.2,0,0,1,.08.043c.051.033.076.055.082.057a.065.065,0,0,0,.025,0,.061.061,0,0,0,.037-.018.045.045,0,0,0,.014-.039.07.07,0,0,0-.016-.029l-.067-.063A.523.523,0,0,0,50,26.761a.755.755,0,0,0-.308-.029,1.356,1.356,0,0,1,.488-.169h.027a.392.392,0,0,1,.2.049l.088.059a.049.049,0,0,0,.031.012.071.071,0,0,0,.033-.014.049.049,0,0,0,.059-.018Zm12.346-1.47a.063.063,0,0,0-.039-.076s-.725-.231-1.438-.421h-.035l-.043-.012c.27-.069.468-.114.615-.143a1.435,1.435,0,0,1,.335-.035H62.4a.061.061,0,0,0,.051-.055.063.063,0,0,0-.012-.045.061.061,0,0,0-.043-.022h-.024a1.515,1.515,0,0,0-.347-.057,2.351,2.351,0,0,0-.251-.012h-.255a5.836,5.836,0,0,1,.839-.472,1.372,1.372,0,0,1,.3-.082h.129a.061.061,0,0,0,.012-.12l-.129-.025a1.521,1.521,0,0,0-.368.016,4.439,4.439,0,0,0-.952.327l-.053.022h0a1.66,1.66,0,0,1,.527-.611.38.38,0,0,1,.141-.059.274.274,0,0,1,.1-.018h.139a.067.067,0,0,0,.055-.051.063.063,0,0,0-.047-.069l-.118-.024a.392.392,0,0,0-.153-.012.609.609,0,0,0-.2.029.819.819,0,0,0-.241.108l.027-.047a1.417,1.417,0,0,1,.27-.366l.041-.031a.319.319,0,0,1,.1-.061l.035-.014a.233.233,0,0,1,.078-.024h.014l.139-.01a.059.059,0,0,0,.055-.053.061.061,0,0,0-.051-.067l-.129-.02a.392.392,0,0,0-.157,0h-.024a.437.437,0,0,0-.178.059l-.049.022a1.417,1.417,0,0,0-.412.374c-.1.127-.2.27-.286.41l-.057.084c-.088.135-.2.286-.327.462a.839.839,0,0,1-.063.092,1.13,1.13,0,0,0-.067.1l-.051.067c-.025.031-.049.063-.071.084l-.043.043a.266.266,0,0,1-.076.061l-.086.049H60.1c-.067.024-.112.045-.112.045h-.341a2.371,2.371,0,0,1-.319,0h-.147a2.249,2.249,0,0,1-.316-.016c-.349-.029-.747-.082-1.148-.151-.459-.086-.9-.182-1.3-.29-.112-.029-.221-.065-.329-.1l-.059-.018a.288.288,0,0,1,.114-.033h.039a.212.212,0,0,1,.116,0l.163.025a.057.057,0,0,0,.059-.039.065.065,0,0,0-.037-.078l-.143-.051a.411.411,0,0,0-.167-.027h-.033a.6.6,0,0,0-.208.025l-.059.014a1.26,1.26,0,0,0-.149.069H55.7l-.272-.082-.3-.088-.247-.069c-.315-.086-.613-.169-.88-.231-.092-.025-.18-.045-.267-.065l-.2-.045c-.135-.033-.255-.063-.353-.082-.2-.041-.306-.063-.308-.063a.071.071,0,0,0-.069.027.057.057,0,0,0,0,.047.049.049,0,0,0,.025.035s.1.067.278.163.392.2.758.366A11.011,11.011,0,0,0,55,24.16c.061.018.125.031.2.047h.018c-.12.11-.235.225-.347.339l-.02.018c-.153.155-.315.31-.472.449a1.237,1.237,0,0,1-.1.1.981.981,0,0,0-.09.09l-.074.059a.8.8,0,0,1-.106.08l-.059.037a.28.28,0,0,1-.106.047l-.055.02h-.12a1.256,1.256,0,0,0-.127.016.027.027,0,0,0-.018,0H53.5l-.312-.045-.069-.01a2.587,2.587,0,0,1-.335-.063c-.051-.014-.106-.025-.163-.037-.112-.027-.227-.053-.349-.09-.372-.106-.807-.257-1.256-.431-.492-.2-.958-.408-1.389-.623-.392-.2-.758-.392-1.119-.588l-.259-.059c-.106-.053-.21-.108-.31-.161s-.21-.114-.314-.163l-.317-.159-.247-.125c-.176-.084-.339-.165-.48-.235s-.278-.135-.376-.176c-.206-.1-.327-.151-.327-.151h-.027a.065.065,0,0,0-.041.016.061.061,0,0,0,0,.088s.1.094.274.239.425.329.772.574a12.934,12.934,0,0,0,1.158.7c.4.2.864.415,1.413.643.437.2.911.368,1.452.551.219.073.433.135.639.2l.045.014.623.143c.123.027.239.043.351.061l.2.029a3.274,3.274,0,0,0,.392.041h.033l.343.027a1.06,1.06,0,0,0,.076.092.439.439,0,0,1,.069.123.327.327,0,0,1,.033.112v.043a.423.423,0,0,1,0,.1v.092a1.178,1.178,0,0,0-.012.12,1.307,1.307,0,0,1-.016.135c-.01.182-.031.392-.063.6l-.018.129a4.224,4.224,0,0,0-.055.515,1.483,1.483,0,0,0,0,.265v.055a.472.472,0,0,1,.02.084.641.641,0,0,0,.065.2.57.57,0,0,0,.145.208.376.376,0,0,0,.155.114l.139.067h.02a.059.059,0,0,0,.051-.027.061.061,0,0,0-.014-.082l-.123-.09a.274.274,0,0,1-.1-.11.392.392,0,0,1-.067-.163.415.415,0,0,1-.018-.145v-.069a.855.855,0,0,0,.01-.1,1.1,1.1,0,0,1,.025-.169,4.6,4.6,0,0,1,.123-.49l.029-.094a4.764,4.764,0,0,0,.284.862c.063.149.125.267.157.327l.063.123a.063.063,0,0,0,.053.031h.016a.059.059,0,0,0,.043-.074l-.037-.131V28.3c-.022-.08-.053-.2-.076-.319a7.838,7.838,0,0,1-.133-.9c.092.17.178.325.27.47a2.22,2.22,0,0,0,.355.443,1.256,1.256,0,0,0,.335.239l.137.059h.02a.063.063,0,0,0,.051-.025.049.049,0,0,0,.01-.043.063.063,0,0,0-.027-.043l-.121-.08a.325.325,0,0,1-.074-.067l-.039-.037a.671.671,0,0,1-.1-.116l-.025-.033a4.519,4.519,0,0,1-.462-1.017c-.025-.063-.047-.129-.071-.2l-.012-.029.118.084.106.08c.131.1.257.2.392.282l.082.057a1.406,1.406,0,0,0,.155.1l.225.123a1.441,1.441,0,0,0,.247.112,1,1,0,0,1,.1.041l.131.049a.051.051,0,0,0,.022,0,.061.061,0,0,0,.053-.029.065.065,0,0,0-.02-.084l-.116-.073c-.027-.02-.057-.039-.094-.061a1.256,1.256,0,0,1-.21-.151,8.856,8.856,0,0,1-.747-.7c.784.274,1.591.515,1.6.515a.053.053,0,0,0,.024,0,.063.063,0,0,0,.053-.035.061.061,0,0,0-.025-.08s-.76-.415-1.519-.784l-.182-.092c.2,0,.423-.012.617-.012h.219a1.609,1.609,0,0,1,.378.045h.049a.061.061,0,0,0,.059-.043.063.063,0,0,0-.037-.074h-.014l-.025-.012a1.775,1.775,0,0,0-.376-.137,4.55,4.55,0,0,0-.662-.131l.051-.018a6.992,6.992,0,0,1,1.1-.335l.078-.012a.835.835,0,0,1,.112,0h.1a.392.392,0,0,1,.069,0l.145.029a.055.055,0,0,0,.067-.037.061.061,0,0,0-.033-.078l-.135-.057a.833.833,0,0,0-.112,0l-.061-.014a.888.888,0,0,0-.145-.016h-.09a5.1,5.1,0,0,0-1.141.157l-.061.014-.092.018h0l.02-.022a4.42,4.42,0,0,1,.392-.368,1.137,1.137,0,0,1,.392-.225.519.519,0,0,1,.176-.029.321.321,0,0,1,.135,0l.131.025a.061.061,0,0,0,.073-.037.057.057,0,0,0-.01-.059c.392.076.827.143,1.3.2a10.341,10.341,0,0,0,1.139.061h.049a2.744,2.744,0,0,0,.317-.012h.157a2.383,2.383,0,0,0,.329-.033l.337-.051h0l.076.067a.3.3,0,0,1,.073.094.235.235,0,0,1,.041.086l.014.035a.318.318,0,0,1,.018.086.331.331,0,0,0,.016.076.608.608,0,0,0,0,.106.94.94,0,0,1,0,.114c.029.2.049.364.061.525l.01.114a3.445,3.445,0,0,0,.049.451,1.5,1.5,0,0,0,.057.241l.012.035.029.063a.588.588,0,0,0,.1.165.494.494,0,0,0,.167.155.362.362,0,0,0,.157.069l.125.029h.014a.069.069,0,0,0,.057-.037.061.061,0,0,0-.029-.078l-.123-.057a.243.243,0,0,1-.1-.078.472.472,0,0,1-.12-.247.5.5,0,0,0-.014-.053.732.732,0,0,0,0-.09.864.864,0,0,1,0-.145,4.221,4.221,0,0,1,.024-.429v-.012a3.774,3.774,0,0,0,.366.607,2.8,2.8,0,0,0,.176.227l.1.116a.053.053,0,0,0,.047.024h.029a.055.055,0,0,0,.027-.037.043.043,0,0,0,0-.041s-.018-.039-.053-.108l-.01-.022c-.033-.065-.076-.155-.12-.259-.092-.225-.169-.439-.229-.639.08.09.161.178.243.261a1.842,1.842,0,0,0,.392.316,1.072,1.072,0,0,0,.337.143l.135.024a.063.063,0,0,0,.059-.041.061.061,0,0,0-.035-.074l-.114-.049a.98.98,0,0,1-.247-.176,4.015,4.015,0,0,1-.566-.784c-.022-.033-.043-.067-.063-.1l.035.016.149.069c.112.051.227.1.339.149a2.939,2.939,0,0,0,.453.153,1.135,1.135,0,0,0,.241.051l.088.014.131.02a.067.067,0,0,0,.059-.041.061.061,0,0,0-.035-.074s-.043-.02-.114-.045l-.09-.037a.98.98,0,0,1-.206-.094,7.3,7.3,0,0,1-.68-.451c.69.08,1.356.127,1.372.127a.063.063,0,0,0,.063-.033Zm1.125-14.46a.039.039,0,0,0-.012-.014.055.055,0,0,0-.035-.012.053.053,0,0,0-.029,0l-.071.055a.249.249,0,0,1-.167.047h0a1.3,1.3,0,0,1-.555-.249,2.726,2.726,0,0,0,.513-.016l.284-.043a.051.051,0,0,0,0-.1h-.3a1.1,1.1,0,0,1-.153-.014l-.12-.014a1.611,1.611,0,0,1-.2-.031h0a2.073,2.073,0,0,0,.588-.2.821.821,0,0,0,.2-.151c.031-.041.051-.063.053-.065a.053.053,0,0,0,0-.065.051.051,0,0,0-.037-.018.069.069,0,0,0-.033.012l-.063.055a.611.611,0,0,1-.174.092,2.532,2.532,0,0,1-.635.1h-.125l.063-.047a3.723,3.723,0,0,0,.513-.421,2,2,0,0,0,.2-.229.049.049,0,0,0,.01-.053.031.031,0,0,0-.014-.018.047.047,0,0,0-.033-.014.051.051,0,0,0-.031.014l-.061.053c-.014.012-.031.025-.049.043a.768.768,0,0,1-.116.094,5.572,5.572,0,0,1-.49.3c.28-.392.541-.784.541-.784a.051.051,0,0,0,0-.073.053.053,0,0,0-.033-.012.065.065,0,0,0-.037.016s-.351.361-.678.725l-.067.074c.043-.165.088-.331.131-.449a.919.919,0,0,1,.086-.2.11.11,0,0,0,.018-.039s0-.012,0-.018a.043.043,0,0,0-.022-.033.065.065,0,0,0-.027,0,.051.051,0,0,0-.045.025h0a1.221,1.221,0,0,0-.135.2,2.634,2.634,0,0,0-.167.333V9.571a4.455,4.455,0,0,1,0-.666.649.649,0,0,1,.092-.272.051.051,0,0,0-.086-.051l-.051.067a.874.874,0,0,0-.1.223,3.294,3.294,0,0,0-.092.668v.073a1.164,1.164,0,0,1-.2-.537.363.363,0,0,1,.041-.172l.035-.067a.041.041,0,0,0,0-.037.059.059,0,0,0-.018-.025.055.055,0,0,0-.033-.014.069.069,0,0,0-.031.012h0s-.018.024-.047.059a.478.478,0,0,0-.094.219.535.535,0,0,0,0,.2.994.994,0,0,1-.151-.319.308.308,0,0,1,.016-.2l.039-.08a.045.045,0,0,0,0-.039l-.016-.02a.047.047,0,0,0-.033-.014A.065.065,0,0,0,61.8,8.6s-.02.027-.049.074a.421.421,0,0,0-.069.267,1.536,1.536,0,0,0,.253.651l.031.053c.069.123.127.231.176.335a1.07,1.07,0,0,1,.12.261.278.278,0,0,0,.01.043.153.153,0,0,1,0,.057v.1a.564.564,0,0,0-.024.092l-.016.012-.557.447a1.087,1.087,0,0,1-.088.073,1.883,1.883,0,0,0-.2.167c-.074.071-.151.147-.229.223l-.069.067c-.029.031-.063.061-.094.092-.073.071-.149.143-.221.221-.1.114-.2.227-.3.343l-.1.118c-.067.074-.135.151-.2.231l-.267.357a5.716,5.716,0,0,0-.349.588l-.053.1a4.457,4.457,0,0,0-.219.513,1.417,1.417,0,0,0-.065.2.061.061,0,0,0,0,.037.059.059,0,0,0,.024.025h.024a.063.063,0,0,0,.043-.024s.161-.265.4-.641c.035-.057.076-.116.12-.178l.082-.12c.031-.045.063-.092.092-.139a2.133,2.133,0,0,1,.139-.2l.2-.351a2.224,2.224,0,0,1,.167-.225l.1-.131c.094-.118.2-.235.278-.351.061-.071.123-.137.184-.2l.108-.116.17-.186.108-.116a1.764,1.764,0,0,1,.182-.18l.078-.071.553-.513A.033.033,0,0,0,62.3,10.6l.053-.024h.014a.29.29,0,0,1,.073-.022.123.123,0,0,1,.049,0h.039a.272.272,0,0,1,.071.016h.031l.065.025a.478.478,0,0,1,.08.031c.088.031.2.078.288.121l.1.043a2.7,2.7,0,0,0,.282.12.725.725,0,0,0,.353.053.392.392,0,0,0,.241-.118l.049-.067a.051.051,0,0,0,.012-.061ZM80.475,24.3l-.092-.014h0c.159-.059.317-.118.439-.153a.913.913,0,0,1,.214-.045.149.149,0,0,0,.031,0,.049.049,0,0,0,.035-.043v-.012a.049.049,0,0,0-.049-.043h-.02a1.344,1.344,0,0,0-.237,0,3.1,3.1,0,0,0-.374.063l.014-.012a4.252,4.252,0,0,1,.543-.392.588.588,0,0,1,.272-.082.053.053,0,0,0,.045-.053.049.049,0,0,0-.051-.049h-.086a.915.915,0,0,0-.241.047,3.078,3.078,0,0,0-.588.308l-.035.024-.039.022a1.133,1.133,0,0,1,.321-.474.331.331,0,0,1,.163-.069h.078a.055.055,0,0,0,.043-.051.049.049,0,0,0-.049-.049h-.1a.508.508,0,0,0-.21.051.6.6,0,0,0-.161.11.98.98,0,0,1,.174-.314.323.323,0,0,1,.167-.1l.1-.016a.05.05,0,0,0-.016-.1h-.092a.461.461,0,0,0-.255.1,1.546,1.546,0,0,0-.392.588L80,23.6c-.059.127-.114.239-.169.339a1.2,1.2,0,0,1-.141.249l-.035.035a.118.118,0,0,1-.043.039l-.027.02-.025.016-.041.016-.051.022c-.027-.012-.074-.037-.159-.082a3.561,3.561,0,0,0-.525-.216L78.644,24l-.225-.061-.1-.022-.314-.057a8.44,8.44,0,0,0-.905-.08,8.786,8.786,0,0,0-.909,0,7.851,7.851,0,0,0-.784.1,5.472,5.472,0,0,0-.754.2.045.045,0,0,0-.033.047.053.053,0,0,0,.055.051l.762-.049.811-.051c.276-.022.562-.043.852-.047a6.813,6.813,0,0,1,.884.035,6.337,6.337,0,0,1,.768.127,3.19,3.19,0,0,1,.508.172l.2.086h.018l.047.029.024.012a.182.182,0,0,1,.043.033h0a.167.167,0,0,1,.035.043.174.174,0,0,0,.018.031.2.2,0,0,1,.029.069.094.094,0,0,0,.012.027.392.392,0,0,0,.018.069.637.637,0,0,1,.02.082c.027.1.053.219.076.343l.014.071a2.4,2.4,0,0,0,.067.3.754.754,0,0,0,.165.315.4.4,0,0,0,.233.127l.084.01h0a.049.049,0,0,0,.049-.033.047.047,0,0,0,0-.043.082.082,0,0,0-.029-.022l-.082-.025a.263.263,0,0,1-.141-.108,1.348,1.348,0,0,1-.118-.6,2.756,2.756,0,0,0,.31.412c.122.125.2.206.2.206a.059.059,0,0,0,.035.016.065.065,0,0,0,.027,0,.053.053,0,0,0,.022-.035.055.055,0,0,0,0-.035s-.063-.1-.161-.239a1.133,1.133,0,0,1-.082-.139c-.02-.035-.039-.073-.061-.108a1.91,1.91,0,0,1-.1-.2,2.013,2.013,0,0,0,.5.368.7.7,0,0,0,.233.069h.08a.051.051,0,0,0,.047-.033.053.053,0,0,0,0-.039.061.061,0,0,0-.033-.025l-.08-.022a.625.625,0,0,1-.178-.088,2.628,2.628,0,0,1-.453-.457l-.055-.069-.025-.027.069.022h.035a3.527,3.527,0,0,0,.613.165,2.2,2.2,0,0,0,.286.024h.02a.051.051,0,0,0,.045-.031.027.027,0,0,0,0-.012.051.051,0,0,0-.041-.057l-.076-.018a.41.41,0,0,0-.065-.014A.741.741,0,0,1,81,24.766a4.6,4.6,0,0,1-.525-.223h.086c.447,0,.866-.016.868-.016a.049.049,0,0,0,.049-.047.051.051,0,0,0-.043-.053S80.961,24.345,80.475,24.3ZM92.5,20.126h0s-.566.047-1.119.114a5.729,5.729,0,0,1,.6-.341.87.87,0,0,1,.153-.063.558.558,0,0,0,.071-.025l.086-.029a.045.045,0,0,0,.033-.031.043.043,0,0,0,0-.031.051.051,0,0,0-.053-.039h0a2.859,2.859,0,0,0-.345.069,4.085,4.085,0,0,0-.686.27l-.086.039-.043.02.057-.082.037-.059a3.055,3.055,0,0,1,.457-.588.75.75,0,0,1,.2-.125l.084-.033a.051.051,0,0,0,.033-.025.063.063,0,0,0,0-.033h0a.049.049,0,0,0-.051-.043h-.01l-.094.018a.876.876,0,0,0-.255.11,2.488,2.488,0,0,0-.537.51l.012-.035a1.84,1.84,0,0,1,.082-.223c.022-.047.039-.092.057-.137a1.3,1.3,0,0,1,.076-.167l.149-.288a.067.067,0,0,0,0-.039.059.059,0,0,0-.024-.033h-.027a.049.049,0,0,0-.041.02l-.2.263a3.253,3.253,0,0,0-.31.531V19.6a1.568,1.568,0,0,1,.057-.707.3.3,0,0,1,.149-.145A.9.9,0,0,0,91.1,18.7a.051.051,0,0,0,.025-.063.053.053,0,0,0-.049-.033h-.012l-.1.024a.455.455,0,0,0-.247.17.839.839,0,0,0-.143.38,2.706,2.706,0,0,0-.039.361v.069c-.012.139-.024.282-.043.412a.454.454,0,0,1-.012.09.374.374,0,0,0-.01.071l-.012.053a.306.306,0,0,1-.024.078l-.016.029a.141.141,0,0,1-.041.065.3.3,0,0,1-.057.055h-.012l-.071.051h0l-.212.123a3.583,3.583,0,0,1-.547.257h-.016a7.054,7.054,0,0,1-.852.247,9.746,9.746,0,0,1-1.007.157c-.357.035-.723.051-1.019.063l-.294.016-.6.031-.88.047a.059.059,0,0,0-.047.059.055.055,0,0,0,.041.043,6.905,6.905,0,0,0,.886.116c.169,0,.368.02.588.02h.327a9.814,9.814,0,0,0,1.039-.12,10.077,10.077,0,0,0,1.023-.214c.121-.031.237-.071.349-.106l.114-.037.4-.163a3.621,3.621,0,0,0,.564-.314c.1-.065.149-.1.172-.118a.363.363,0,0,0,.067.02l.047.012a.243.243,0,0,1,.039.02l.037.018a.163.163,0,0,1,.047.035l.039.035a1.36,1.36,0,0,1,.2.272c.065.09.131.2.2.306l.078.125a1.711,1.711,0,0,0,.5.607.541.541,0,0,0,.272.084h.031l.106-.012a.051.051,0,0,0-.006-.1h-.1a.392.392,0,0,1-.208-.094,1.217,1.217,0,0,1-.255-.361.649.649,0,0,0,.216.118.588.588,0,0,0,.2.033.292.292,0,0,0,.078,0,.813.813,0,0,0,.084-.014.053.053,0,0,0,.049-.057.051.051,0,0,0-.051-.045h-.1a.41.41,0,0,1-.2-.057,1.372,1.372,0,0,1-.435-.508v-.012l.063.027.031.016a3.508,3.508,0,0,0,.721.278,1.08,1.08,0,0,0,.233.027H92.3l.1-.016a.051.051,0,0,0-.014-.1h0a.8.8,0,0,1-.321-.061,4.632,4.632,0,0,1-.67-.374l-.033-.022c.127.012.251.022.363.022h.088a1.217,1.217,0,0,0,.267-.029h.035a.053.053,0,0,0,.037-.061h0a.039.039,0,0,0-.012-.024.045.045,0,0,0-.022-.016.2.2,0,0,0-.053,0,1.156,1.156,0,0,1-.245-.024c-.139-.024-.323-.069-.517-.116h-.027l.051-.012.082-.022c.551-.125,1.1-.276,1.107-.276a.061.061,0,0,0,.033-.025.059.059,0,0,0,0-.031.049.049,0,0,0-.053-.082Z" fill="url(#linear-gradient)"/>
        <path id="Path_12752" data-name="Path 12752" d="M31.205,54.811c-1.015,1.123-3.271,3.849-6.892,8.336-2.391,2.977-4.329,5.544-5.763,7.629s-2.726,4.037-3.794,5.755a29.782,29.782,0,0,1-2.269,3.331,2.685,2.685,0,0,1-1.815.882h-.035A4.773,4.773,0,0,1,7.11,79.42a8.333,8.333,0,0,1-1.936-3.394,47.569,47.569,0,0,1-1.315-5.74c-.447-2.479-.811-4.356-1.117-5.742-.457-2.095-.99-4.362-1.566-6.735C.588,55.4.251,54.029.137,53.5a3.31,3.31,0,0,1-.1-1.372,1.764,1.764,0,0,1,.484-.819c.084-.145.292-.174.443-.2l.127-.016a8.726,8.726,0,0,1,2.3.043,4.052,4.052,0,0,1,1.822.523,1.472,1.472,0,0,1,.67,1.086,18,18,0,0,1,.016,1.96,25.265,25.265,0,0,0,.051,2.61q.139,1.1.476,3.463c.227,1.568.557,3.592.98,6a63.2,63.2,0,0,0,1.464,6.455A8.323,8.323,0,0,0,10.2,76.289a17.557,17.557,0,0,0,2.548-2.965c1-1.409,1.754-2.534,2.25-3.347l9.926-12.83c.831-1.2,1.6-2.424,2.263-3.619a26.063,26.063,0,0,1,1.335-2.244,1.752,1.752,0,0,1,1.156-.625,4.4,4.4,0,0,1,1.474.267,3.692,3.692,0,0,1,1.317.784,1.316,1.316,0,0,1,.466,1.264l-.059.267h-.184C32.585,53.341,32.228,53.694,31.205,54.811Zm.629,3.322a1.758,1.758,0,0,0-1.558,1.452A1.913,1.913,0,0,0,30.9,61.48a2.232,2.232,0,0,0,1.141.286,3.484,3.484,0,0,0,1.719-.494A5.253,5.253,0,0,0,35.54,58l-.073-.306h-.249a.392.392,0,0,0-.29.153c-.745.823-1.333,1.029-2.085.588a2.03,2.03,0,0,0-1.009-.3Zm1.817,6.631c.037-.037.078-.074.12-.11s.037-.1.053-.147c.323-.874-.035-1.115-.286-1.176a4.822,4.822,0,0,0-1.866.176h0c-.221.039-.413.076-.588.11s-.341.069-.519.108a1.2,1.2,0,0,0-.629.317,2.493,2.493,0,0,0-.37.67q-.827,4.868-1.748,9.735a6.623,6.623,0,0,0-.376,1.2,1.991,1.991,0,0,0,0,.85c.106.372.366.425.913.163a1.578,1.578,0,0,0,.609-.486,3.527,3.527,0,0,0,.472-.935l.2-.539c.051-.161.11-.343.161-.513.613-1.764,1.176-3.367,1.719-4.764s.962-2.438,1.309-3.165A9.756,9.756,0,0,1,33.484,65a1.988,1.988,0,0,1,.167-.237ZM100,58.005,99.93,57.7h-.249a.392.392,0,0,0-.29.153c-.745.823-1.333,1.029-2.085.588a2.024,2.024,0,0,0-1.009-.31,1.756,1.756,0,0,0-1.558,1.452,1.912,1.912,0,0,0,.623,1.895,2.24,2.24,0,0,0,1.142.286,3.465,3.465,0,0,0,1.717-.494A5.279,5.279,0,0,0,100,58.005Zm-1.509,5.33a4.824,4.824,0,0,0-1.866.176h0c-.221.039-.413.076-.588.11s-.343.069-.519.108a1.2,1.2,0,0,0-.631.317,2.548,2.548,0,0,0-.37.67q-.825,4.868-1.748,9.735a6.787,6.787,0,0,0-.376,1.2,1.991,1.991,0,0,0,0,.85c.106.372.366.425.915.163a1.593,1.593,0,0,0,.609-.486,3.606,3.606,0,0,0,.47-.935l.186-.539c.051-.161.11-.343.161-.513.613-1.764,1.176-3.367,1.719-4.764s.962-2.438,1.311-3.165a9.162,9.162,0,0,1,.664-1.262c.1-.129.161-.218.182-.239s.08-.074.12-.11.037-.1.053-.147c.319-.876-.041-1.117-.292-1.178ZM43.767,68.009a3.723,3.723,0,0,0-1.942-.462,13.767,13.767,0,0,0-2.516.357c-.715.149-.655.145-1.1.21-1.246.176-.958-1.282.184-1.9a5.738,5.738,0,0,1,2.988-.825,4.489,4.489,0,0,1,2.89.854.792.792,0,0,0,.645.049,3.818,3.818,0,0,0,1.054-1.462c.137-.392.161-.513.086-.347v-.1c-.155-.5-.3-1-.455-1.5a1.163,1.163,0,0,0-1.062-.847c-8.06-.56-9.894,6.937-9.98,7.447-.039.2-.053.38-.082.521a.5.5,0,0,0,.337.621,5.1,5.1,0,0,0,1.834.31,18.573,18.573,0,0,0,2.12-.18,18.407,18.407,0,0,1,2.156-.182c.492,0,.2,1.66-.905,2a6.118,6.118,0,0,1-1.856.29q-.557,0-1.652-.118c-.737-.074-1.3-.114-1.7-.114-1.146,0-1.764.147-1.875.443a1,1,0,0,0-.037.423,1.653,1.653,0,0,1,0,.4.576.576,0,0,1,.076.231c.206,1.176.735,1.752,1.593,1.752a12.409,12.409,0,0,0,4.205-.98,10.173,10.173,0,0,0,4.211-2.579c.449-.619.784-1.105,1.013-1.464a4.392,4.392,0,0,0,.462-.98A1.426,1.426,0,0,0,43.767,68.009ZM71.135,78.817a7.852,7.852,0,0,1-.731-.392c-3.584-1.846-5.5-5.683-10.927-9.342-.517-.351-.41-.711-.372-.839a3.919,3.919,0,0,1,.97-.943c.459-.333,1.405-.9,2.808-1.677s3.429-1.922,6.016-3.39c2.628-1.485,3.608-2.167,6.743-4,.308-.155.741-.376,1.3-.666a16.783,16.783,0,0,0,1.6-.947,2.437,2.437,0,0,0,1.015-1.068l.029-.08-.016-.084c-.074-.408-.392-.9-1.429-.9a6.447,6.447,0,0,0-3.1.958c-4.686,2.608-6.271,3.614-8.519,4.954-2.3,1.372-4.554,2.743-6.7,4.056-2.677,1.652-3.743,2.228-4.166,2.424a12.752,12.752,0,0,1-2.218.839,40.567,40.567,0,0,1,1.478-4.194c.251-.709.784-2.116,1.65-4.311.817-2.087,1.176-3.065,1.372-3.576.5-1.321-4.168-6.075-4.646-2.971l-.043.255c-.468,2.52-1.691,6.759-2.41,9.161s-1.46,6.406-3.161,11.225c-.186.531-1.3,4.725-1.568,5.616A50.682,50.682,0,0,1,44.558,84.4c-.519,1.587,2.136,3.764,2.506,2.512.123-.417.2-.886.366-1.372.118-.327,2.806-9.226,3.014-9.994.2-.707.341-1.213.445-1.5a4.3,4.3,0,0,1,.947-1.607,2.7,2.7,0,0,1,1.617-.668,10.526,10.526,0,0,1,4.184,1.007c1.519.67,3.829,2.939,5,4.031A31.813,31.813,0,0,0,67.2,80.5a6.99,6.99,0,0,0,3.159.909,2.265,2.265,0,0,0,1.864-.843l.063-.106a.918.918,0,0,0-.169-1.023,3.151,3.151,0,0,0-.986-.617ZM81.4,65.36l-.016.041a.085.085,0,0,1,0,.024ZM80.12,71.854q-.56,2.016-3.4,3.135a10.374,10.374,0,0,1-3.808.805q-2.51,0-3.106-.529c-.682-.588-.843-1.981-.47-4.2.086-.482.212-1.213.366-2.187a12.687,12.687,0,0,1,4.928-4.925,10.8,10.8,0,0,1,5.2-1.372q1.176,0,1.554,2.82a6.583,6.583,0,0,1-1.8,2.939,20.067,20.067,0,0,1-4.209,2.414,4.754,4.754,0,0,1-1.333.278.268.268,0,0,0-.063.045,3.561,3.561,0,0,0-1.96.588,2.936,2.936,0,0,0,2.426,1.023c.843,0,2.514-.784,5.318-1.335.584-.12.364.5.364.5ZM72.066,69.5h.415q2.975,0,6.555-3.437a4.293,4.293,0,0,0-1.583-.3,5.381,5.381,0,0,0-2.822.809A6.588,6.588,0,0,0,72.072,69.5ZM92.9,63.682a6.648,6.648,0,0,0-1.387-.137,9.886,9.886,0,0,1-1.425-.139l.98-3.941a6.181,6.181,0,0,1,1.317-2.783,3.537,3.537,0,0,1,1.852-1.064,14.638,14.638,0,0,1,2.806-.219h.28l.061-.257a.927.927,0,0,0-.47-1.058,3.578,3.578,0,0,0-1.256-.451,15.819,15.819,0,0,0-1.724-.212c-.678-.055-1.031-.082-1.062-.082a4.323,4.323,0,0,0-3.1,1.2,8.372,8.372,0,0,0-1.895,2.794,24.284,24.284,0,0,0-1.142,3.484c-.443,1.8-.621,2.391-.688,2.583a4.049,4.049,0,0,1-.905.069H83.828c-1.372,0-1.113,2.018-.455,1.936a14.217,14.217,0,0,1,1.938,0,.157.157,0,0,1,0,.092c-.376,1.625-.849,3.594-1.409,5.851-.3,1.211-1.221,5.046-2.015,8.354-.656,2.743-1.2,5.109-1.286,5.344-.433,1.2,2.791,4.092,3.527,1.333l5-20.421a.392.392,0,0,1,.272-.364c.294-.074.841.024,1.568-.045.774-.073,1.344-.137,1.74-.2.441-.094.494-1.589.2-1.674Z" fill="url(#linear-gradient-2)"/>
      </g>
    </g>
  </g>
</svg>
